<?xml version="1.0" encoding="utf-8"?>
<!-- Generator: Adobe Illustrator 26.3.1, SVG Export Plug-In . SVG Version: 6.00 Build 0)  -->
<svg version="1.1" id="Layer_1" xmlns="http://www.w3.org/2000/svg" xmlns:xlink="http://www.w3.org/1999/xlink" x="0px" y="0px"
	 viewBox="0 0 99 44.1" style="enable-background:new 0 0 99 44.1;" xml:space="preserve">
<style type="text/css">
	.st0{fill:#111111;}
	.st1{fill:#FE5000;}
</style>
<path class="st0" d="M87.8,44.1H4.1c-1.1,0-2.1-0.4-2.9-1.2C0.4,42.2,0,41.1,0,40.1V10.7c0-1.2,0.3-2.3,0.8-3.4c0.5-1,1.3-2,2.3-2.6
	L8,1.3l85.7,5.6l4.1,29.5l-4.3,5.1c-0.7,0.8-1.6,1.5-2.5,1.9C89.9,43.9,88.9,44.1,87.8,44.1z"/>
<path class="st1" d="M93.3,1.3H11.7c-2.5,0-4.6,2.1-4.6,4.6v26.6c0,2.5,2.1,4.6,4.6,4.6h81.6c2.5,0,4.6-2.1,4.6-4.6V5.9
	C97.9,3.3,95.9,1.3,93.3,1.3z"/>
<path class="st0" d="M93.9,38.1H11.2c-1.4,0-2.7-0.5-3.6-1.5c-1-1-1.5-2.3-1.5-3.6V5.3C6,4,6.5,2.7,7.5,1.7c1-1,2.3-1.5,3.6-1.5
	h82.7c1.4,0,2.7,0.5,3.6,1.5c1,1,1.5,2.3,1.5,3.6V33c0,1.4-0.5,2.7-1.5,3.6C96.5,37.6,95.2,38.1,93.9,38.1z M11.2,2.4
	c-0.8,0-1.5,0.3-2.1,0.9C8.5,3.8,8.2,4.5,8.2,5.3v27.6c0,0.8,0.3,1.5,0.9,2.1c0.6,0.6,1.3,0.9,2.1,0.9h82.7c0.8,0,1.5-0.3,2.1-0.9
	s0.9-1.3,0.9-2.1V5.3c0-0.8-0.3-1.5-0.9-2.1s-1.3-0.9-2.1-0.9H11.2z"/>
<path class="st0" d="M22.7,14.1c-0.9,0-1.3,0.5-1.3,1.1c0,0.8,0.6,1.3,2,1.8c3.1,1.1,4.6,2.4,4.6,5.1s-1.7,4.7-5.6,4.7
	c-3.2,0-5.3-1.6-5.3-4.1c0-0.4,0-0.8,0.2-1.2c0.1-0.4,0.3-0.7,0.6-1c0,0,0.1-0.1,0.1-0.1c0,0,0.1,0,0.1,0c0.1,0,0.1,0,0.2,0.1
	c0.1,0,0.1,0.1,0.1,0.1c0.9,1.7,2.5,2.7,4,2.7c1,0,1.6-0.4,1.6-1.1c0-0.8-0.6-1.2-2.1-1.7c-2.5-0.9-4.5-2.1-4.5-4.9
	c0-2.6,1.8-4.6,5.3-4.6c1.7,0,3.3,0.4,4.6,1.4c0.1,0.1,0.1,0.1,0.2,0.2c0,0.1,0.1,0.2,0.1,0.3c0,0.6-0.7,2-1.3,2.7
	c0,0-0.1,0.1-0.1,0.1c0,0-0.1,0-0.2,0c-0.1,0-0.1,0-0.2,0c-0.1,0-0.1-0.1-0.1-0.1C24.9,14.7,23.8,14.2,22.7,14.1z"/>
<path class="st0" d="M37.7,11.2c0.6,0,1.3,0,1.7,0c0.1,0,0.2,0,0.3,0.1c0.1,0.1,0.1,0.1,0.2,0.2c0.3,0.7,0.7,3,0.7,7.7
	c0,4.6-1.3,7.4-5.7,7.4c-3.9,0-5.7-2.3-5.7-7.1c0-4.7,0.6-7.1,0.8-8c0-0.1,0.1-0.2,0.1-0.2c0.1-0.1,0.2-0.1,0.2-0.1c0.4,0,1,0,1.7,0
	c0.6,0,1.2,0,1.5,0c0,0,0.1,0,0.1,0c0,0,0.1,0.1,0.1,0.1c0,0,0.1,0.1,0.1,0.1c0,0,0,0.1,0,0.1c-0.1,0.9-0.6,4.5-0.6,7.4
	c0,2.8,0.6,3.8,1.7,3.8c1.1,0,1.6-0.9,1.6-3.7c0-3.4-0.4-6.7-0.4-7.5c0-0.3,0-0.4,0.3-0.4C36.8,11.2,37.2,11.2,37.7,11.2z"/>
<path class="st0" d="M42.9,26.6c-0.3,0-0.5-0.1-0.6-0.5C42.1,24,42,21.9,42,19.8c0-2.7,0.2-5.4,0.6-8c0-0.1,0.1-0.3,0.2-0.4
	c0.1-0.1,0.2-0.1,0.4-0.1c0.7-0.1,2.1-0.1,3.6-0.1c2.6,0,4.3,0.2,5.3,1.2c0.3,0.3,0.4,0.6,0.6,0.9c0.1,0.3,0.2,0.7,0.2,1.1
	c0,0.6-0.2,1.2-0.4,1.8c-0.3,0.6-0.7,1-1.2,1.4c-0.2,0.2-0.3,0.3-0.3,0.4c0,0.1,0,0.1,0.1,0.2c0,0,0.1,0.1,0.1,0.1
	c1.6,1.1,2.3,2.2,2.3,4c0,3-2.1,4.5-7.4,4.5C44.9,26.6,43.8,26.6,42.9,26.6z M49,14.9c0-0.9-0.9-1.2-1.8-1.2c-0.4-0.1-0.8,0-1.1,0.3
	c-0.3,0.3-0.4,1.4-0.4,2.8c0,0.4,0.1,0.7,0.4,0.7C47.4,17.4,49,16.2,49,14.9z M49.4,21.4c0-1.1-0.7-2.1-1.4-2.1
	c-0.5,0.1-1.1,0.2-1.5,0.5c-0.2,0.1-0.4,0.3-0.5,0.6s-0.2,0.5-0.1,0.8c0,1,0.1,1.6,0.3,1.9c0.2,0.2,0.4,0.2,0.9,0.2
	C48.2,23.3,49.4,22.8,49.4,21.4z"/>
<path class="st0" d="M59.3,26.5c-0.5,0-1.1,0-1.8,0c-0.7,0-1.4,0-2,0c-0.1,0-0.2,0-0.2-0.1c-0.1-0.1-0.1-0.1-0.1-0.2
	c-0.4-2.1-0.6-4.3-0.6-6.5c0-2.7,0.2-5.3,0.6-8c0-0.3,0.2-0.4,0.4-0.4c0.4,0,1.2-0.1,2-0.1c0.6,0,1.3,0,1.7,0.1c0.2,0,0.3,0,0.4,0.1
	c0.1,0.1,0.2,0.2,0.3,0.3c0.9,1.7,1.6,3.5,2.2,5.3c0,0.1,0.1,0.2,0.2,0.2c0.1,0,0.2-0.1,0.2-0.2c0.6-1.8,1.3-3.5,2.1-5.2
	c0.1-0.1,0.2-0.3,0.3-0.3c0.1-0.1,0.3-0.2,0.4-0.2c0.5,0,1.1-0.1,1.7-0.1c0.6,0,1.1,0,1.6,0.1c0.1,0,0.3,0.1,0.4,0.1
	c0.1,0.1,0.2,0.2,0.2,0.3c0.6,2.5,0.9,5.1,0.9,7.7c0,2.2-0.2,4.4-0.5,6.6c0,0.1-0.1,0.2-0.1,0.3c-0.1,0.1-0.2,0.1-0.3,0.2
	c-0.5,0-1.4,0.1-2.3,0.1c-0.7,0-1.3,0-1.7-0.1c-0.3,0-0.4-0.1-0.4-0.3c0-0.7,1-3.5,1-6.9c0-0.9-0.1-1.8-0.2-2.7c0,0,0-0.1-0.1-0.1
	c0,0-0.1,0-0.1,0c0,0-0.1,0-0.1,0c0,0,0,0.1-0.1,0.1c-0.8,2.2-1.6,4.4-2.7,6.5c0,0.1-0.1,0.2-0.2,0.2c-0.1,0.1-0.2,0.1-0.3,0.1
	c-0.1,0-0.2,0-0.3-0.1c-0.1-0.1-0.2-0.1-0.2-0.2c-1-2.1-1.9-4.2-2.6-6.5c0,0,0-0.1-0.1-0.1s-0.1,0-0.1,0c-0.1,0-0.1,0.1-0.2,0.2
	c-0.1,1.1-0.2,2.1-0.2,3.2c0,3.5,1,5.9,1,6.5C59.6,26.4,59.5,26.5,59.3,26.5z"/>
<path class="st0" d="M74.8,26.6c-0.6,0-1.3,0-1.9-0.1c-0.3,0-0.4-0.1-0.5-0.5c-0.3-2-0.4-4-0.4-6c0-4.5,0.5-7.4,0.7-8.2
	c0-0.1,0.1-0.3,0.2-0.4c0.1-0.1,0.2-0.2,0.4-0.2c0.6,0,1.2-0.1,1.8-0.1c0.6,0,1.3,0,1.8,0.1c0.2,0,0.4,0.1,0.3,0.4
	c0,0.5-0.9,3.2-0.9,7.3c0,2.4,0.3,4.9,0.8,7.2c0,0.2-0.1,0.3-0.4,0.3C76.1,26.6,75.5,26.6,74.8,26.6z"/>
<path class="st0" d="M81.4,26.5c-0.3,0-0.5-0.2-0.6-0.6c-0.1-0.9-0.2-1.9-0.1-2.9c0-4.2,0.5-6.6,0.5-7.5c0-0.3-0.1-0.5-0.4-0.5
	c-1.2,0-2.1,0.6-2.6,0.6c-0.2,0-0.3-0.1-0.3-0.4c0.1-1.1,0.2-2.2,0.4-3.2c0-0.1,0.1-0.2,0.2-0.3c0.1-0.1,0.2-0.1,0.3-0.2
	c1.5-0.4,3-0.6,4.5-0.5c2.1,0,3.7,0.3,4.5,0.7c0.2,0.1,0.3,0.2,0.4,0.4c0.1,0.2,0.1,0.3,0.1,0.5c0,1-0.1,1.9-0.3,2.9
	c-0.1,0.2-0.2,0.3-0.3,0.3c-0.4,0-1.1-0.6-2.2-0.6c-0.3,0-0.5,0.1-0.5,0.5c-0.1,0.8-0.2,1.7-0.2,2.5c0,3.8,0.8,7.2,0.8,7.8
	c0,0.3-0.1,0.4-0.4,0.5c-0.6,0.1-1.2,0.1-1.9,0.1C82.7,26.6,82,26.6,81.4,26.5z"/>
</svg>
