<?xml version="1.0" encoding="utf-8"?>
<!-- Generator: Adobe Illustrator 26.3.1, SVG Export Plug-In . SVG Version: 6.00 Build 0)  -->
<svg version="1.1" id="Layer_1" xmlns="http://www.w3.org/2000/svg" xmlns:xlink="http://www.w3.org/1999/xlink" x="0px" y="0px"
	 viewBox="0 0 172.5 44" style="enable-background:new 0 0 172.5 44;" xml:space="preserve">
<style type="text/css">
	.st0{fill:#111111;}
	.st1{fill:#FE5000;}
</style>
<path class="st0" d="M161.3,44H4c-1.1,0-2.1-0.4-2.8-1.2C0.4,42.1,0,41,0,40V10.6c0-1.2,0.3-2.3,0.8-3.4c0.5-1,1.3-2,2.3-2.6
	l4.8-3.4l159.3,5.6l4,29.5l-4.3,5.1c-0.7,0.8-1.5,1.5-2.5,1.9C163.4,43.8,162.4,44,161.3,44z"/>
<path class="st1" d="M166.3,1.2H12.2c-2.8,0-5.1,2.3-5.1,5.1v25.5c0,2.8,2.3,5.1,5.1,5.1h154.1c2.8,0,5.1-2.3,5.1-5.1V6.3
	C171.4,3.5,169.1,1.2,166.3,1.2z"/>
<path class="st0" d="M167.3,38H11.1c-1.4,0-2.7-0.5-3.6-1.5c-1-1-1.5-2.3-1.5-3.6V5.2c0-1.4,0.5-2.7,1.5-3.6c1-1,2.3-1.5,3.6-1.5
	h156.2c1.4,0,2.7,0.5,3.6,1.5c1,1,1.5,2.3,1.5,3.6v27.6c0,1.4-0.5,2.7-1.5,3.6S168.7,38,167.3,38z M11.1,2.3c-0.8,0-1.5,0.3-2.1,0.9
	C8.5,3.7,8.2,4.4,8.2,5.2v27.6c0,0.8,0.3,1.5,0.9,2.1c0.6,0.6,1.3,0.9,2.1,0.9h156.2c0.8,0,1.5-0.3,2.1-0.9c0.6-0.6,0.9-1.3,0.9-2.1
	V5.2c0-0.8-0.3-1.5-0.9-2.1c-0.6-0.6-1.3-0.9-2.1-0.9H11.1z"/>
<path class="st0" d="M24.1,26.4c-0.3,0-0.5-0.2-0.6-0.6c-0.1-0.9-0.2-1.9-0.1-2.9c0-4.2,0.5-6.6,0.5-7.5c0-0.3-0.1-0.5-0.4-0.5
	c-1.2,0-2.1,0.6-2.5,0.6c-0.2,0-0.3-0.1-0.3-0.4c0.1-1.1,0.2-2.2,0.4-3.2c0-0.1,0.1-0.2,0.2-0.3c0.1-0.1,0.2-0.1,0.3-0.2
	c0.6-0.2,2.3-0.5,4.5-0.5c2.1,0,3.7,0.3,4.5,0.7c0.4,0.2,0.4,0.5,0.4,0.9c0,1-0.1,1.9-0.3,2.9c-0.1,0.2-0.2,0.3-0.3,0.3
	c-0.4,0-1.1-0.6-2.2-0.6c-0.3,0-0.5,0.1-0.5,0.5c-0.1,0.8-0.2,1.7-0.2,2.5c0,3.8,0.8,7.2,0.8,7.8c0,0.3-0.1,0.4-0.4,0.5
	c-0.6,0.1-1.2,0.1-1.9,0.1C25.4,26.5,24.8,26.5,24.1,26.4z"/>
<path class="st0" d="M31.5,26.4c-0.4,0-0.6-0.1-0.6-0.5c-0.1-0.9-0.1-1.8-0.1-2.8c0-4.7,1.2-9.9,5.3-12.2c0.1-0.1,0.3-0.1,0.5-0.2
	c0.2,0,0.3,0.1,0.5,0.2c3.8,2.4,5.2,6.8,5.2,12.1c0,0.9,0,1.8-0.1,2.7c0,0.4-0.3,0.5-0.6,0.6c-0.5,0-1,0.1-1.5,0.1
	c-0.7,0-1.3,0-1.7-0.1c-0.3,0-0.4-0.2-0.4-0.4c0-0.4,0.3-1.4,0.3-2.6c0-0.8-0.4-1.1-1.3-1.1c-1.2,0-2.2,0.5-2.2,1.6
	c0,0.9,0.2,1.6,0.2,2.2c0,0.2-0.1,0.3-0.3,0.4c-0.4,0-1,0.1-1.7,0.1C32.3,26.4,31.9,26.4,31.5,26.4z M36.6,19.6c0.5,0,0.8-0.1,1-0.1
	c0.2,0,0.3-0.2,0.3-0.5c-0.1-1.4-0.5-2.7-1.2-3.8c-0.1-0.1-0.2-0.2-0.2-0.2c-0.1,0-0.2,0.1-0.3,0.2c-1,1.1-1.5,3.3-1.5,4.5
	c0,0.2,0.1,0.2,0.2,0.2C35.1,20,35.8,19.7,36.6,19.6z"/>
<path class="st0" d="M44.5,26.4c-0.4,0-0.6-0.2-0.7-0.8c-0.1-1.4-0.2-3.1-0.2-4.7c0-3,0.2-5.9,0.5-8.9c0.1-0.7,0.3-0.8,0.8-0.9
	c0.4,0,0.9,0,1.4,0c0.5,0,1,0,1.5,0c0.4,0,0.6,0.1,0.5,0.5c0,0.9-0.7,3.9-0.7,5.6c0,0.2,0.1,0.3,0.2,0.3c0.1,0,0.3-0.1,0.5-0.4
	c1.3-1.2,2.3-3.5,2.8-5.4c0.1-0.4,0.2-0.5,0.5-0.6c0.5,0,1-0.1,1.5-0.1s1.1,0,1.5,0.1c0.3,0,0.5,0.2,0.5,0.4c0,1.5-1,4.3-2.7,6.1
	c-0.1,0-0.1,0.1-0.1,0.2c0,0.1,0,0.1,0,0.2c0,0.1,0,0.1,0,0.2c0,0.1,0.1,0.1,0.1,0.2c1.6,1.5,2.8,4.7,2.8,7.3c0,0.4-0.2,0.6-0.5,0.6
	c-0.4,0-0.9,0-1.5,0c-0.5,0-1.1,0-1.6-0.1c-0.5,0-0.6-0.2-0.6-0.7c-0.5-3.8-1.2-5.3-2.2-5.3c-0.5,0-1,0.7-1,1.7
	c0,1.3,0.5,3.1,0.5,3.8c0,0.1,0,0.2,0,0.2c0,0.1-0.1,0.1-0.1,0.2c-0.1,0.1-0.1,0.1-0.2,0.1c-0.1,0-0.2,0-0.2,0c-0.4,0-0.9,0-1.5,0
	C45.6,26.5,45,26.5,44.5,26.4z"/>
<path class="st0" d="M57.3,26.4c-0.4,0-0.7-0.1-0.7-0.6c0-0.9-0.1-1.9-0.1-2.9c0-3.6,0.3-7.8,1-11.3c0-0.1,0.1-0.3,0.2-0.4
	c0.1-0.1,0.2-0.2,0.4-0.2c0.7-0.1,2.3-0.1,3.9-0.1c1.7,0,3.5,0,4.5,0.1c0.3,0,0.4,0.1,0.4,0.3c-0.2,1-0.5,2-0.9,2.9
	c0,0.1-0.1,0.1-0.1,0.2c-0.1,0-0.1,0.1-0.2,0.1c-0.2,0-0.4-0.1-0.6-0.2c-0.9-0.3-1.8-0.4-2.7-0.4c-0.7,0-1,0.1-1.3,0.4
	c-0.3,0.3-0.5,1.2-0.5,2c0,0.4,0.2,0.6,0.5,0.6c0.7,0,1.6-0.3,2.7-0.3c0.8,0,1.4,0.1,1.4,0.5c-0.1,0.9-0.3,1.8-0.6,2.7
	c-0.1,0.2-0.2,0.3-0.3,0.3c-0.3,0-1.2-0.3-2.1-0.3c-1.3,0-1.8,0.5-1.8,1.5c0,1.4,0.3,1.7,1.3,1.7c1.3,0,2.6-0.3,3.7-0.9
	c0.2-0.1,0.3-0.2,0.4-0.2c0.1,0,0.1,0,0.2,0.1c0,0,0.1,0.1,0.1,0.1c0.3,1.2,0.5,2.4,0.6,3.7c0,0.1,0,0.2,0,0.2
	c0,0.1-0.1,0.1-0.1,0.2c-0.1,0.1-0.1,0.1-0.2,0.1c-0.1,0-0.1,0-0.2,0c-1.3,0.1-2.8,0.1-4.3,0.1C60.2,26.5,58.5,26.5,57.3,26.4z"/>
<path class="st0" d="M76.2,26.4c-0.5,0-1.1,0-1.8,0c-0.7,0-1.4,0-1.9,0c-0.1,0-0.2,0-0.3-0.1s-0.1-0.1-0.1-0.2
	c-0.4-2.1-0.6-4.3-0.6-6.5c0-2.7,0.2-5.3,0.6-8c0-0.3,0.2-0.4,0.4-0.4c0.4,0,1.2-0.1,2-0.1c0.6,0,1.2,0,1.7,0.1c0.2,0,0.3,0,0.4,0.1
	c0.1,0.1,0.2,0.2,0.3,0.3c0.9,1.7,1.6,3.5,2.2,5.3c0,0.1,0.1,0.2,0.2,0.2s0.2-0.1,0.2-0.2c0.6-1.8,1.3-3.5,2.1-5.2
	c0.1-0.1,0.2-0.3,0.3-0.4c0.1-0.1,0.3-0.2,0.4-0.2c0.5,0,1.1-0.1,1.7-0.1c0.5,0,1.1,0,1.6,0.1c0.1,0,0.3,0,0.4,0.1
	c0.1,0.1,0.2,0.2,0.2,0.3c0.6,2.5,0.9,5.1,0.9,7.7c0,2.2-0.2,4.4-0.5,6.6c0,0.1-0.1,0.2-0.1,0.3c-0.1,0.1-0.2,0.1-0.3,0.2
	c-0.5,0-1.4,0.1-2.3,0.1c-0.7,0-1.3,0-1.7-0.1c-0.3,0-0.4-0.1-0.4-0.3c0-0.7,1-3.5,1-6.9c0-0.9-0.1-1.8-0.2-2.7c0,0,0-0.1-0.1-0.1
	c0,0-0.1,0-0.1,0c0,0-0.1,0-0.1,0c0,0,0,0.1-0.1,0.1c-0.8,2.1-1.6,4.5-2.6,6.5c0,0.1-0.1,0.2-0.2,0.2c-0.1,0.1-0.2,0.1-0.3,0.1
	c-0.1,0-0.2,0-0.3-0.1c-0.1-0.1-0.2-0.1-0.2-0.2c-1-2.1-1.9-4.2-2.6-6.5c0,0,0-0.1-0.1-0.1c0,0-0.1,0-0.1,0c-0.1,0-0.1,0.1-0.2,0.2
	c-0.1,1.1-0.2,2.1-0.2,3.2c0,3.5,1,5.9,1,6.5C76.5,26.3,76.4,26.4,76.2,26.4z"/>
<path class="st0" d="M89.4,26.4c-0.4,0-0.7-0.1-0.7-0.6c0-0.9-0.1-1.9-0.1-2.9c0-3.6,0.3-7.8,1-11.3c0-0.1,0.1-0.3,0.2-0.4
	c0.1-0.1,0.2-0.2,0.4-0.2c0.7-0.1,2.3-0.1,3.9-0.1c1.7,0,3.5,0,4.5,0.1c0.3,0,0.4,0.1,0.4,0.3c-0.2,1-0.5,2-0.9,2.9
	c0,0.1-0.1,0.1-0.1,0.2c-0.1,0-0.1,0.1-0.2,0.1c-0.2,0-0.4-0.1-0.6-0.2c-0.9-0.3-1.8-0.4-2.7-0.4c-0.7,0-1,0.1-1.3,0.4
	c-0.3,0.3-0.5,1.2-0.5,2c0,0.4,0.2,0.6,0.5,0.6c0.7,0,1.6-0.3,2.7-0.3c0.8,0,1.4,0.1,1.4,0.5c-0.1,0.9-0.3,1.8-0.6,2.7
	c-0.1,0.2-0.2,0.3-0.3,0.3c-0.3,0-1.2-0.3-2.1-0.3c-1.3,0-1.8,0.5-1.8,1.5c0,1.4,0.3,1.7,1.3,1.7c1.3,0,2.6-0.3,3.7-0.9
	c0.2-0.1,0.3-0.2,0.4-0.2c0.1,0,0.1,0,0.2,0.1c0,0,0.1,0.1,0.1,0.1c0.3,1.2,0.5,2.4,0.6,3.7c0,0.1,0,0.2,0,0.2
	c0,0.1-0.1,0.1-0.1,0.2c-0.1,0.1-0.1,0.1-0.2,0.1c-0.1,0-0.1,0-0.2,0c-1.3,0.1-2.8,0.1-4.3,0.1C92.3,26.5,90.6,26.5,89.4,26.4z"/>
<path class="st0" d="M104.6,26.4c-0.3,0-0.4-0.2-0.5-0.6c-0.2-0.8-0.4-3.2-0.4-5.9c0-4.5,0.5-7.3,0.7-8.2c0.1-0.4,0.3-0.5,0.5-0.5
	c0.5-0.1,1.1-0.1,1.6-0.1c0.6,0,1.1,0,1.6,0.1c0,0,0.1,0,0.1,0c0,0,0.1,0,0.1,0.1c0,0,0,0.1,0.1,0.1s0,0.1,0,0.1
	c0,0.4-0.6,2.3-0.6,5c0,0.4,0.1,0.7,0.3,0.8c0.3,0.1,0.8,0,1.5,0c0.9,0,1.3,0.1,1.6,0c0.3-0.1,0.3-0.4,0.3-0.8c0-2.4-0.6-4.5-0.6-5
	c0,0,0-0.1,0-0.1c0,0,0-0.1,0.1-0.1c0,0,0.1-0.1,0.1-0.1c0,0,0.1,0,0.1,0c0.5,0,1-0.1,1.5-0.1c0.5,0,1.1,0,1.7,0.1
	c0.1,0,0.3,0.1,0.4,0.2c0.1,0.1,0.2,0.2,0.2,0.4c0.2,0.8,0.7,3.7,0.7,8.2c0,2.7-0.2,5.2-0.4,5.9c-0.1,0.4-0.2,0.6-0.6,0.6
	c-0.6,0-1.1,0.1-1.7,0.1c-0.6,0-1.1,0-1.7-0.1c-0.3,0-0.4-0.1-0.4-0.4c0-0.5,0.5-3,0.5-4.3c0-1-0.5-1.4-1.6-1.4c-1.5,0-2,0.6-2,1.8
	c0,1.6,0.6,3.5,0.6,4c0,0.2-0.1,0.3-0.4,0.4c-0.6,0-1.2,0.1-1.8,0.1C105.7,26.5,105.1,26.4,104.6,26.4z"/>
<path class="st0" d="M122.9,26.7c-4.5,0-5.9-2.7-5.9-6c0-5.1,2-9.9,5.8-9.9c3.8,0,5.8,4.8,5.8,9.9C128.7,24,127.3,26.7,122.9,26.7z
	 M124.7,20c0-3.2-0.8-5.5-1.9-5.5c-1.2,0-1.9,2.3-1.9,5.5c0,2.1,0.7,2.9,1.9,2.9S124.7,22,124.7,20L124.7,20z"/>
<path class="st0" d="M134.7,26.4c-0.5,0-1.1,0-1.8,0c-0.7,0-1.4,0-1.9,0c-0.1,0-0.2,0-0.2-0.1c-0.1-0.1-0.1-0.1-0.1-0.2
	c-0.4-2.1-0.6-4.3-0.6-6.5c0-2.7,0.2-5.3,0.6-8c0-0.3,0.2-0.4,0.4-0.4c0.4,0,1.2-0.1,2-0.1c0.6,0,1.2,0,1.7,0.1c0.2,0,0.3,0,0.4,0.1
	c0.1,0.1,0.2,0.2,0.3,0.3c0.9,1.7,1.6,3.5,2.2,5.3c0,0.1,0.1,0.2,0.2,0.2s0.2-0.1,0.2-0.2c0.6-1.8,1.3-3.5,2.1-5.2
	c0.1-0.1,0.2-0.3,0.3-0.4c0.1-0.1,0.3-0.2,0.4-0.2c0.5,0,1.1-0.1,1.7-0.1c0.5,0,1.1,0,1.6,0.1c0.1,0,0.3,0,0.4,0.1
	c0.1,0.1,0.2,0.2,0.2,0.3c0.6,2.5,0.9,5.1,0.9,7.7c0,2.2-0.2,4.4-0.5,6.6c0,0.1-0.1,0.2-0.1,0.3c-0.1,0.1-0.2,0.1-0.3,0.2
	c-0.5,0-1.4,0.1-2.3,0.1c-0.7,0-1.3,0-1.7-0.1c-0.3,0-0.4-0.1-0.4-0.3c0-0.7,1-3.5,1-6.9c0-0.9-0.1-1.8-0.2-2.7c0,0,0,0,0-0.1
	c0,0,0,0,0,0c0,0,0,0-0.1,0c0,0,0,0-0.1,0c0,0-0.1,0-0.1,0c0,0,0,0.1-0.1,0.1c-0.8,2.1-1.6,4.5-2.6,6.5c0,0.1-0.1,0.2-0.2,0.2
	c-0.1,0.1-0.2,0.1-0.3,0.1c-0.1,0-0.2,0-0.3-0.1c-0.1-0.1-0.2-0.1-0.2-0.2c-1-2.1-1.9-4.2-2.6-6.5c0,0,0-0.1-0.1-0.1
	c0,0-0.1,0-0.1,0c-0.1,0-0.1,0.1-0.2,0.2c-0.1,1.1-0.2,2.1-0.2,3.2c0,3.5,1,5.9,1,6.5C135.1,26.3,134.9,26.4,134.7,26.4z"/>
<path class="st0" d="M147.9,26.4c-0.4,0-0.7-0.1-0.7-0.6c0-0.9-0.1-1.9-0.1-2.9c0-3.6,0.3-7.8,1-11.3c0-0.1,0.1-0.3,0.2-0.4
	c0.1-0.1,0.2-0.2,0.4-0.2c0.7-0.1,2.3-0.1,3.9-0.1c1.7,0,3.5,0,4.5,0.1c0.3,0,0.4,0.1,0.4,0.3c-0.2,1-0.5,2-0.9,2.9
	c0,0.1-0.1,0.1-0.1,0.2c-0.1,0-0.1,0.1-0.2,0.1c-0.2,0-0.4-0.1-0.6-0.2c-0.9-0.3-1.8-0.4-2.7-0.4c-0.7,0-1,0.1-1.3,0.4
	c-0.3,0.3-0.5,1.2-0.5,2c0,0.4,0.2,0.6,0.5,0.6c0.7,0,1.6-0.3,2.7-0.3c0.8,0,1.4,0.1,1.4,0.5c-0.1,0.9-0.3,1.8-0.6,2.7
	c-0.1,0.2-0.2,0.3-0.3,0.3c-0.3,0-1.2-0.3-2.1-0.3c-1.3,0-1.8,0.5-1.8,1.5c0,1.4,0.3,1.7,1.3,1.7c1.3,0,2.6-0.3,3.7-0.9
	c0.2-0.1,0.3-0.2,0.4-0.2c0.1,0,0.1,0,0.2,0.1c0,0,0.1,0.1,0.1,0.1c0.3,1.2,0.5,2.4,0.6,3.7c0,0.1,0,0.2,0,0.2
	c0,0.1-0.1,0.1-0.1,0.2c-0.1,0.1-0.1,0.1-0.2,0.1c-0.1,0-0.1,0-0.2,0c-1.3,0.1-2.8,0.1-4.3,0.1C150.8,26.5,149.1,26.5,147.9,26.4z"
	/>
</svg>
