<?xml version="1.0" encoding="utf-8"?>
<!-- Generator: Adobe Illustrator 27.5.0, SVG Export Plug-In . SVG Version: 6.00 Build 0)  -->
<svg version="1.1" id="Layer_1" xmlns="http://www.w3.org/2000/svg" xmlns:xlink="http://www.w3.org/1999/xlink" x="0px" y="0px"
	 viewBox="0 0 157.4 74.4" style="enable-background:new 0 0 157.4 74.4;" xml:space="preserve">
<style type="text/css">
	.st0{fill:#FC5000;}
	.st1{fill:#111111;}
</style>
<g>
	<polygon class="st0" points="68.9,4.8 67.9,4.7 65,0.6 64.6,1.6 62.9,5.1 59.3,6.2 58.1,6.5 61.8,10.1 61.6,15.1 62.5,14.6 
		66.1,12.8 69.7,14 70.7,14.4 70.5,13.2 69.8,9.4 72.9,5.4 	"/>
	<polygon class="st0" points="153.4,39.5 153.7,34.5 149.2,36.7 144.5,34.9 145.2,39.9 142,43.6 146.9,44.5 147.1,44.9 149.5,48.8 
		151.7,44.9 151.9,44.4 156.8,43.2 	"/>
	<polygon class="st0" points="49.2,44 45.3,46.8 44.9,46.7 40.6,45.8 42,50.4 39.8,54.6 44.5,54.6 47.8,58 49.3,53.5 53.6,51.5 
		49.8,48.7 	"/>
	<polygon class="st0" points="115.6,49.7 111.2,49.3 110.7,49.1 107.8,45.2 105.8,49.7 101.1,51.3 104.5,54.4 104.6,54.5 
		104.8,59.4 105.2,59.2 109,57.1 113.8,58.6 112.9,54.3 112.8,53.7 113.2,53.3 	"/>
</g>
<g>
	<path class="st1" d="M33.8,16c2.6-0.2,5.2-0.2,7.7,0.1c0.2,0,0.3,0,0.4-0.1c0.1-0.1,0.2-0.2,0.2-0.4c0-0.1,0-0.2,0-0.2
		c0-0.1,0-0.2-0.1-0.2c0-0.1-0.1-0.1-0.2-0.2c-0.1,0-0.1-0.1-0.2-0.1c-1.3-0.3-2.7-0.4-4-0.5c-1.2-0.1-2.5-0.1-4-0.1
		c-2.5,0-5.1,0.1-7.9,0.4c-6.2,0.7-11.2,1.8-15.6,3.6c-2.6,1-5,2.5-7.1,4.4c-1.1,1-1.9,2.3-2.5,3.7c-0.5,1.4-0.7,3-0.5,4.5
		c0.3,1.4,0.8,2.8,1.5,4.1c0.7,1.2,1.5,2.4,2.4,3.4c1.8,2,3.7,3.9,5.9,5.5L9.9,44c0.1,0.1,0.2,0.1,0.4,0c0.1,0,0.2-0.1,0.3-0.2
		c0.1-0.1,0.2-0.3,0.2-0.4c0-0.2-0.1-0.3-0.2-0.5c-1.8-1.8-3.5-3.8-5-5.8c-0.7-1-1.4-2.1-1.9-3.2c-0.5-1-0.9-2.2-1-3.3
		c-0.1-1.1,0-2.2,0.4-3.2s1.1-2,1.9-2.8c1.8-1.7,3.9-3,6.2-3.9c2.4-1,4.8-1.8,7.3-2.4s5-1.1,7.6-1.5C28.5,16.4,31.1,16.2,33.8,16z"
		/>
	<path class="st1" d="M155.1,60.3c-0.2-0.3-0.4-0.5-0.6-0.7l-0.3-0.4l-0.3-0.3c-0.2-0.2-0.4-0.5-0.6-0.7c-1.2-1.3-2.5-2.5-3.9-3.6
		c-2.7-2.2-5.6-4.2-8.6-6c-3.2-1.9-6.2-3.5-9.2-4.9c-1.8-0.8-3.3-1.5-4.8-2.1c-1-0.4-1.7-0.7-2.5-0.9h-0.1c-0.8-0.3-1.7-0.5-2.6-0.6
		c-0.2,0-0.3,0-0.4,0.1s-0.2,0.2-0.2,0.4c0,0.1,0,0.2,0,0.2c0,0.1,0.1,0.2,0.1,0.2c0,0.1,0.1,0.1,0.2,0.2c0.3,0,0.4,0,0.5,0
		c0.8,0.1,1.6,0.4,2.3,0.7c0.8,0.3,1.6,0.6,2.4,1c1.4,0.6,2.9,1.4,4.6,2.2c3.3,1.7,6.2,3.4,8.9,5.1c1.5,0.9,2.9,1.9,4.2,2.9
		c1.5,1.1,2.8,2.1,4,3.1c1.3,1.1,2.5,2.2,3.6,3.4c0.2,0.2,0.3,0.4,0.5,0.6l0.3,0.3c0.1,0.1,0.2,0.2,0.3,0.4c0.2,0.2,0.3,0.4,0.5,0.6
		c0.4,0.6,0.8,1.3,1.1,2c0.3,0.6,0.4,1.3,0.4,2c-0.1,0.6-0.3,1.3-0.7,1.8c-0.2,0.2-0.4,0.4-0.6,0.6l-0.6,0.5
		c-0.1,0.1-0.3,0.2-0.4,0.3l-0.5,0.3l-0.6,0.3c-0.3,0.2-0.6,0.3-1,0.4h-0.1c-1.6,0.6-3.1,1-4.8,1.4c-1.5,0.3-3.2,0.6-5,0.8
		c-2.9,0.3-6.2,0.6-10.2,0.7h-0.9c-1.4,0-2.8,0.1-4.3,0.1c-0.9,0-1.9,0-2.8,0c-0.8,0-1.6,0-2.4,0c-0.1,0-0.3,0.1-0.4,0.2
		s-0.2,0.2-0.2,0.4c0,0.1,0,0.2,0.1,0.4c0.1,0.1,0.2,0.2,0.3,0.2c0.1,0,0.1,0,0.2,0c6.1,0.4,13.4,0.8,20.8,0.1
		c3.2-0.3,6.9-0.8,10.4-2.1h0.1c0.4-0.2,0.8-0.3,1.2-0.5l0.6-0.3l0.6-0.4c0.2-0.1,0.4-0.3,0.6-0.4l0.2-0.1c0.1-0.1,0.3-0.2,0.4-0.3
		l0.1-0.1c0.3-0.3,0.6-0.6,0.9-1c0.7-0.9,1.1-1.9,1.2-3c0.1-1-0.1-2.1-0.6-3C156.1,61.9,155.7,61.1,155.1,60.3z"/>
	<path class="st1" d="M99.8,30.8l3.2,0.8l3.2,0.9l0.3,0.1c2,0.6,4.1,1.2,6.1,1.8c0.1,0.1,0.3,0,0.5,0c0.1-0.1,0.3-0.2,0.3-0.3
		c0.1-0.1,0.1-0.3,0-0.5c0-0.1-0.1-0.1-0.1-0.2c-0.1-0.1-0.1-0.1-0.2-0.1c-3.8-1.4-7.8-2.7-12.8-4L98.7,29c-1.6-0.4-3.3-0.9-5-1.3
		l-1.2-0.3c-0.7-0.2-1.4-0.3-2.1-0.5l-3.3-0.7c-8.8-1.8-17.7-3-26.7-3.6l-5-0.2c-0.4,0-0.7,0-1.1,0h-5.7c-0.4,0-0.7,0-1.1,0
		l-5.6,0.3l-1.2,0.2h-0.5c-2.4,0.2-4.6,0.5-6.8,0.9c-2.3,0.4-4.5,1-6.7,1.8c-1.2,0.4-2.2,1-3.3,1.7c-0.6,0.4-1,0.9-1.5,1.4
		c-0.5,0.6-0.8,1.2-1,1.9c-0.2,0.7-0.3,1.5-0.1,2.2c0.1,0.7,0.3,1.4,0.6,2c0.6,1.1,1.3,2.1,2.2,3c0.4,0.4,0.8,0.8,1.3,1.2
		s0.9,0.7,1.4,1c0.9,0.6,1.8,1.1,2.8,1.6l0.3,0.1c0.1,0,0.2,0.1,0.4,0c0.1,0,0.2-0.1,0.3-0.2c0.1-0.1,0.2-0.3,0.2-0.4
		c0-0.2-0.1-0.3-0.2-0.4c-1.6-1.4-3.2-2.9-4.6-4.6c-0.6-0.8-1.2-1.6-1.6-2.5c-0.4-0.7-0.5-1.5-0.3-2.3c0.3-0.8,0.8-1.4,1.5-1.9
		c0.8-0.6,1.7-1,2.6-1.4c2-0.8,4.1-1.3,6.2-1.7c2-0.4,4.2-0.6,6.5-0.9l1.6-0.1l5.6-0.3c0.3,0,0.7,0,1.1-0.1h5h0.6c0.4,0,0.7,0,1.1,0
		l5,0.2c8.9,0.4,17.7,1.4,26.4,3C91,28.9,95.4,29.8,99.8,30.8z"/>
	<path class="st1" d="M125.4,66.8c1.8-0.3,3.5-0.9,5.1-1.8c0.9-0.5,1.6-1.2,2.2-2.1c0.5-1,0.7-2.1,0.5-3.1c-0.2-0.9-0.6-1.8-1.1-2.7
		c-0.5-0.8-1-1.5-1.6-2.2c-1.2-1.3-2.4-2.5-3.8-3.6c-0.1-0.1-0.3-0.1-0.4-0.1s-0.3,0.1-0.4,0.2c-0.1,0.1-0.2,0.3-0.2,0.4
		c0,0.2,0.1,0.3,0.2,0.4c1.2,1.2,2.3,2.4,3.3,3.7c0.5,0.6,0.9,1.3,1.3,2c0.4,0.6,0.6,1.3,0.7,2.1c0.1,0.6,0,1.3-0.3,1.8
		c-0.4,0.7-1,1.2-1.6,1.5c-0.7,0.4-1.4,0.7-2.1,0.9c-0.8,0.2-1.5,0.4-2.3,0.6c-3.3,0.6-6.6,0.8-9.9,0.8c-3,0-6.3-0.1-10.1-0.3
		c-6.4-0.4-13-1.1-20.2-2c-3-0.4-6.3-0.9-10.1-1.4c-3.2-0.5-6.6-1-10-1.6c-0.2,0-0.3,0-0.4,0.1s-0.2,0.2-0.3,0.4c0,0.1,0,0.2,0,0.2
		c0,0.1,0,0.2,0.1,0.2c0.1,0.1,0.2,0.2,0.3,0.2h0.1c3.6,0.8,7.1,1.4,10,1.9c3.3,0.6,6.7,1.2,10.1,1.7c8.1,1.2,14.4,1.9,20.3,2.3
		c3.8,0.3,7.2,0.4,10.2,0.4c1.9,0,3.6-0.1,5.2-0.2C121.9,67.4,123.7,67.2,125.4,66.8z"/>
	<path class="st1" d="M57.9,7.9l2.8,2.5l-0.1,3.7c0,0.3,0.1,0.5,0.2,0.8c0.1,0.2,0.3,0.4,0.5,0.6c0.2,0.1,0.5,0.2,0.8,0.2
		c0.2,0,0.5-0.1,0.7-0.2l3.3-1.8l3.5,1.2c0.2,0.1,0.3,0.1,0.5,0.1c0.4,0,0.7-0.1,1-0.4c0.2-0.2,0.4-0.4,0.4-0.6
		c0.1-0.2,0.1-0.5,0.1-0.8L71,9.6l2.3-3c0.2-0.2,0.3-0.5,0.3-0.7c0-0.3,0-0.5-0.1-0.8c-0.1-0.2-0.3-0.5-0.5-0.6
		c-0.2-0.2-0.5-0.3-0.7-0.3l-3.7-0.5l-2.1-3.1c-0.1-0.2-0.3-0.4-0.5-0.5C65.7,0,65.4,0,65.2,0h-0.1c-0.3,0-0.5,0.1-0.7,0.3
		c-0.2,0.1-0.4,0.3-0.5,0.6l-1.7,3.3l-3.6,1.1c-0.3,0.1-0.5,0.2-0.7,0.4c-0.2,0.2-0.3,0.4-0.4,0.7s-0.1,0.5,0,0.8S57.7,7.7,57.9,7.9
		z M59.9,6.4l3.3-1l1.5-3.1l0.4-0.8l2.5,3.6L72,5.7l-2.6,3.5l0.6,3.4l0.2,1l-0.9-0.3L66,12.1l-3.1,1.6l-0.8,0.4l0.1-4.4l-3.2-3
		L59.9,6.4z"/>
	<path class="st1" d="M157.2,42.6c-0.1-0.3-0.2-0.5-0.4-0.7l-2.6-2.7l0.2-3.7c0-0.3,0-0.5-0.1-0.8c-0.1-0.2-0.3-0.4-0.5-0.6
		s-0.5-0.3-0.8-0.3c-0.2,0-0.4,0.1-0.6,0.1l-3.4,1.6l-3.5-1.4c-0.2-0.1-0.4-0.1-0.6-0.1c-0.3,0-0.7,0.1-0.9,0.3s-0.4,0.4-0.5,0.6
		c-0.1,0.2-0.1,0.5-0.1,0.8l0.5,3.7l-2.4,2.9c-0.2,0.2-0.3,0.4-0.3,0.7s0,0.5,0.1,0.8c0.1,0.2,0.2,0.5,0.4,0.6
		c0.4,0.3,0.6,0.4,0.9,0.5l3.7,0.7l2,3.2c0.1,0.2,0.3,0.4,0.5,0.5s0.5,0.2,0.7,0.2c0.3,0,0.5-0.1,0.7-0.2c0.2-0.1,0.4-0.3,0.5-0.6
		l1.8-3.3l3.6-0.9c0.3-0.1,0.5-0.2,0.7-0.4s0.3-0.4,0.4-0.7S157.3,42.9,157.2,42.6z M151.6,44l-0.2,0.4l-1.9,3.4l-2.1-3.4l-0.2-0.3
		l-4.3-0.8l2.8-3.3l-0.6-4.4l4.1,1.6l4-1.9l-0.3,4.4l3,3.2L151.6,44z"/>
	<path class="st1" d="M53.8,50.2l-3-2.2l-0.5-3.7c0-0.3-0.1-0.5-0.3-0.7s-0.4-0.4-0.6-0.5C49.2,43,49,43,48.8,43
		c-0.3,0-0.6,0.1-0.9,0.3l-3,2.2l-3.7-0.7c-0.1,0-0.2,0-0.3,0c-0.2,0-0.4,0-0.6,0.1c-0.2,0.1-0.4,0.2-0.5,0.4
		c-0.2,0.2-0.3,0.4-0.3,0.7c-0.1,0.3,0,0.5,0,0.8l1.1,3.6L39,53.5c-0.1,0.2-0.2,0.5-0.2,0.7c0,0.3,0.1,0.5,0.2,0.8
		c0.1,0.2,0.3,0.4,0.5,0.5s0.5,0.2,0.7,0.2h3.7l2.5,2.7c0.1,0.2,0.3,0.3,0.5,0.4c0.2,0.1,0.4,0.1,0.6,0.1c0.1,0,0.2,0,0.3,0
		c0.3-0.1,0.5-0.2,0.7-0.3c0.2-0.2,0.3-0.4,0.4-0.6l1.2-3.6l3.4-1.6c0.2-0.1,0.4-0.3,0.6-0.5c0.2-0.2,0.2-0.5,0.3-0.7
		c0-0.3,0-0.5-0.1-0.8C54.2,50.6,54,50.4,53.8,50.2z M49.1,53.3l-1.4,4.2l-3-3.2h-4.4l2.1-3.8l-1.3-4.3L45,47l0.4,0.1l3.6-2.6
		l0.6,4.4l3.5,2.6L49.1,53.3z"/>
	<path class="st1" d="M108.9,45.2c-0.1-0.2-0.3-0.3-0.5-0.4c-0.2-0.1-0.4-0.2-0.7-0.2h-0.2c-0.3,0-0.5,0.1-0.7,0.3s-0.4,0.4-0.5,0.6
		l-1.5,3.4l-3.5,1.2c-0.2,0.1-0.5,0.2-0.6,0.4c-0.2,0.2-0.3,0.4-0.3,0.7c-0.1,0.3,0,0.5,0,0.8c0.1,0.2,0.2,0.5,0.4,0.6l2.8,2.5
		l0.1,3.7c0,0.3,0.1,0.5,0.2,0.7s0.3,0.4,0.5,0.5s0.5,0.2,0.7,0.2c0.3,0,0.5-0.1,0.7-0.2l3.3-1.8l3.6,1.1c0.1,0,0.3,0.1,0.4,0.1
		c0.4,0,0.7-0.1,1-0.4c0.2-0.2,0.3-0.4,0.4-0.7c0.1-0.2,0.1-0.5,0-0.8l-0.8-3.7L116,51c0.1-0.2,0.2-0.5,0.3-0.7c0-0.3,0-0.5-0.1-0.8
		c-0.1-0.2-0.3-0.4-0.5-0.6s-0.5-0.3-0.7-0.3l-3.7-0.4L108.9,45.2z M112.3,53.7l0.1,0.5l0.8,3.8l-4.3-1.3l-3.4,1.9l-0.4,0.2
		l-0.1-4.4l-0.1-0.1l-3.1-2.8l4.2-1.4l1.8-4l2.6,3.5l0.5,0.1l3.9,0.4L112.3,53.7z"/>
</g>
</svg>
