<?xml version="1.0" encoding="utf-8"?>
<!-- Generator: Adobe Illustrator 26.3.1, SVG Export Plug-In . SVG Version: 6.00 Build 0)  -->
<svg version="1.1" id="Layer_1" xmlns="http://www.w3.org/2000/svg" xmlns:xlink="http://www.w3.org/1999/xlink" x="0px" y="0px"
	 viewBox="0 0 157.4 74.4" style="enable-background:new 0 0 157.4 74.4;" xml:space="preserve">
<style type="text/css">
	.st0{fill:#FFFFFF;}
	.st1{fill:#111111;}
	.st2{fill:#FC5000;}
</style>
<g>
	<path class="st0" d="M101.7,51.5l3.1,2.8L101.7,51.5L101.7,51.5z"/>
	<path class="st0" d="M63.2,5.4l1.5-3.1L63.2,5.4l-3.3,1L63.2,5.4z"/>
	<path class="st0" d="M39.7,46.7c-0.1-0.2-0.1-0.5,0-0.8c0.1-0.3,0.2-0.5,0.3-0.7c0.1-0.2,0.3-0.3,0.5-0.4c0.2-0.1,0.4-0.1,0.6-0.1
		c0.1,0,0.2,0,0.3,0l3.7,0.7l3-2.2c0.3-0.2,0.6-0.3,0.9-0.3c0.2,0,0.4,0,0.6,0.1c0.2,0.1,0.4,0.3,0.6,0.5c0.2,0.2,0.3,0.5,0.3,0.7
		l0.5,3.7l3,2.2c0.2,0.2,0.4,0.4,0.5,0.6c0.1,0.2,0.2,0.5,0.1,0.8c0,0.3-0.1,0.5-0.3,0.7c-0.2,0.2-0.4,0.4-0.6,0.5l-3.4,1.6
		l-1.2,3.6c-0.1,0.2-0.2,0.5-0.4,0.6c-0.2,0.2-0.4,0.3-0.7,0.3c-0.1,0-0.2,0-0.3,0c-0.2,0-0.4,0-0.6-0.1c-0.2-0.1-0.4-0.2-0.5-0.4
		l-2.6-2.7h-3.7c-0.3,0-0.5-0.1-0.7-0.2c-0.2-0.1-0.4-0.3-0.6-0.5c-0.1-0.2-0.2-0.5-0.2-0.7c0-0.3,0.1-0.5,0.2-0.7l1.8-3.3
		L39.7,46.7z M131.1,60.2c-0.1-0.7-0.4-1.4-0.7-2.1c-0.4-0.7-0.8-1.4-1.3-2c-1-1.3-2.1-2.6-3.3-3.7c-0.1-0.1-0.2-0.3-0.2-0.4
		c0-0.2,0.1-0.3,0.2-0.4c0.1-0.1,0.3-0.2,0.4-0.2s0.3,0,0.4,0.1c1.4,1.1,2.6,2.3,3.8,3.6c0.6,0.7,1.1,1.4,1.6,2.2
		c0.5,0.8,0.9,1.7,1.1,2.7c0.2,1.1,0,2.2-0.5,3.1c-0.5,0.9-1.3,1.6-2.2,2.1c-1.6,0.9-3.3,1.5-5.1,1.8c-1.7,0.3-3.4,0.6-5.2,0.7
		c-1.6,0.1-3.3,0.2-5.2,0.2c-3.1,0-6.4-0.1-10.2-0.4c-5.9-0.4-12.2-1.1-20.3-2.3c-3.4-0.5-6.8-1.1-10.1-1.7c-3-0.6-6.5-1.2-10-1.9
		l-0.1,0c-0.1-0.1-0.2-0.1-0.3-0.2c0-0.1-0.1-0.1-0.1-0.2c0-0.1,0-0.2,0-0.2c0-0.1,0.1-0.2,0.1-0.2c0-0.1,0.1-0.1,0.2-0.2
		c0.1,0,0.1-0.1,0.2-0.1c0.1,0,0.2,0,0.2,0c3.5,0.6,6.8,1.1,10,1.6c3.7,0.6,7,1,10.1,1.4c7.2,0.9,13.8,1.6,20.2,2
		c3.8,0.2,7.1,0.3,10.1,0.3c3.3,0,6.6-0.3,9.9-0.8c0.8-0.1,1.6-0.3,2.3-0.6c0.7-0.2,1.4-0.5,2.1-0.9c0.6-0.3,1.1-0.8,1.5-1.3
		C131.2,61.4,131.3,60.8,131.1,60.2L131.1,60.2z M141.7,42.4l2.4-2.9l-0.5-3.7c0-0.3,0-0.5,0.1-0.8c0.1-0.2,0.3-0.5,0.5-0.6
		c0.3-0.2,0.6-0.3,0.9-0.3c0.2,0,0.4,0,0.6,0.1l3.5,1.4l3.4-1.6c0.2-0.1,0.4-0.1,0.6-0.1c0.3,0,0.6,0.1,0.8,0.3
		c0.2,0.1,0.4,0.3,0.5,0.6c0.1,0.2,0.2,0.5,0.2,0.8l-0.2,3.7l2.6,2.7c0.2,0.2,0.3,0.4,0.4,0.7c0.1,0.3,0.1,0.5,0,0.8
		c-0.1,0.3-0.2,0.5-0.4,0.7s-0.4,0.3-0.7,0.4l-3.6,0.9l-1.8,3.3c-0.1,0.2-0.3,0.4-0.5,0.6c-0.2,0.1-0.5,0.2-0.7,0.2h0
		c-0.3,0-0.5-0.1-0.7-0.2c-0.2-0.1-0.4-0.3-0.5-0.5l-2-3.2l-3.7-0.7c-0.3-0.1-0.5-0.2-0.7-0.3c-0.2-0.2-0.3-0.4-0.4-0.6
		c-0.1-0.2-0.1-0.5-0.1-0.8C141.4,42.9,141.6,42.6,141.7,42.4L141.7,42.4z M121.9,40c0.9,0.1,1.8,0.3,2.6,0.6h0.1
		c0.7,0.2,1.5,0.5,2.5,0.9c1.5,0.6,3,1.2,4.8,2.1c3,1.4,6,3,9.2,4.9c3,1.8,5.9,3.8,8.6,6c1.4,1.1,2.7,2.3,3.9,3.6
		c0.2,0.2,0.4,0.4,0.6,0.7l0.3,0.3l0.3,0.4c0.2,0.2,0.4,0.5,0.6,0.7c0.6,0.8,1,1.6,1.4,2.5c0.4,1,0.6,2,0.6,3
		c-0.1,1.1-0.5,2.1-1.2,3c-0.3,0.4-0.6,0.7-0.9,1l-0.1,0.1c-0.2,0.1-0.3,0.2-0.4,0.3l-0.2,0.1c-0.2,0.2-0.4,0.3-0.6,0.4l-0.6,0.4
		l-0.6,0.3c-0.4,0.2-0.8,0.4-1.2,0.5l-0.1,0c-3.6,1.3-7.2,1.8-10.4,2.1c-7.4,0.7-14.7,0.3-20.8-0.1c-0.1,0-0.1,0-0.2-0.1
		c-0.1-0.1-0.2-0.1-0.3-0.2c-0.1-0.1-0.1-0.2-0.1-0.4c0-0.1,0.1-0.3,0.2-0.4c0.1-0.1,0.3-0.2,0.4-0.2c0.8,0,1.6,0,2.4,0
		c0.9,0,1.9,0,2.8,0c1.4,0,2.9,0,4.3-0.1h0.9c4-0.1,7.3-0.3,10.2-0.7c1.8-0.2,3.5-0.5,5-0.8c1.6-0.3,3.2-0.8,4.8-1.4l0.1,0
		c0.3-0.1,0.7-0.3,1-0.4l0.6-0.3l0.5-0.3c0.2-0.1,0.3-0.2,0.4-0.3l0.6-0.5c0.2-0.2,0.4-0.4,0.6-0.6c0.4-0.5,0.6-1.1,0.7-1.8
		c0-0.7-0.1-1.4-0.4-2c-0.3-0.7-0.7-1.4-1.1-2c-0.1-0.2-0.3-0.4-0.5-0.6c-0.1-0.1-0.2-0.2-0.3-0.4l-0.3-0.3
		c-0.2-0.2-0.3-0.4-0.5-0.6c-1.1-1.2-2.4-2.4-3.6-3.4c-1.2-1-2.5-2-4-3.1c-1.4-1-2.8-1.9-4.2-2.9c-2.7-1.7-5.6-3.4-8.9-5.1
		c-1.7-0.9-3.2-1.6-4.6-2.2c-0.7-0.3-1.5-0.7-2.4-1c-0.7-0.3-1.5-0.5-2.3-0.7c-0.1,0-0.2,0-0.2-0.1s-0.1-0.1-0.2-0.2
		s-0.1-0.1-0.1-0.2c0-0.1,0-0.2,0-0.2c0-0.1,0-0.2,0.1-0.2c0-0.1,0.1-0.1,0.2-0.2c0.1-0.1,0.1-0.1,0.2-0.1
		C121.7,40,121.8,40,121.9,40L121.9,40z M116.1,49.5c0.1,0.2,0.2,0.5,0.1,0.8c0,0.3-0.1,0.5-0.3,0.7l-2.2,3.1l0.8,3.7
		c0.1,0.3,0,0.5,0,0.8c-0.1,0.3-0.2,0.5-0.4,0.7c-0.3,0.2-0.6,0.4-1,0.4c-0.2,0-0.3,0-0.4-0.1l-3.6-1.1l-3.3,1.8
		c-0.2,0.1-0.5,0.2-0.7,0.2c-0.3,0-0.5-0.1-0.7-0.2c-0.2-0.1-0.4-0.3-0.5-0.5c-0.1-0.2-0.2-0.5-0.2-0.7l-0.1-3.7l-2.8-2.5
		c-0.2-0.2-0.3-0.4-0.4-0.6c-0.1-0.2-0.1-0.5,0-0.8c0.1-0.3,0.2-0.5,0.3-0.7c0.2-0.2,0.4-0.3,0.6-0.4l3.5-1.2l1.5-3.4
		c0.1-0.2,0.3-0.4,0.5-0.6c0.2-0.2,0.5-0.2,0.7-0.3h0.2c0.2,0,0.5,0.1,0.7,0.2c0.2,0.1,0.4,0.3,0.5,0.4l2.2,3l3.7,0.4
		c0.3,0,0.5,0.1,0.7,0.3C115.8,49.1,116,49.3,116.1,49.5L116.1,49.5z M57.6,6.4c0.1-0.3,0.2-0.5,0.4-0.7c0.2-0.2,0.4-0.3,0.7-0.4
		l3.6-1.1l1.7-3.3c0.1-0.2,0.3-0.4,0.5-0.6C64.6,0.1,64.8,0,65.1,0h0.1c0.2,0,0.5,0.1,0.7,0.2c0.2,0.1,0.4,0.3,0.5,0.5l2.1,3.1
		l3.7,0.5c0.3,0,0.5,0.1,0.7,0.3c0.2,0.2,0.4,0.4,0.5,0.6c0.1,0.2,0.1,0.5,0.1,0.8c0,0.3-0.1,0.5-0.3,0.7l-2.3,3l0.6,3.7
		c0,0.3,0,0.5-0.1,0.8c-0.1,0.2-0.2,0.5-0.4,0.6c-0.3,0.2-0.6,0.4-1,0.4c-0.2,0-0.3,0-0.5-0.1l-3.5-1.2l-3.3,1.7
		c-0.2,0.1-0.5,0.2-0.7,0.2c-0.3,0-0.5-0.1-0.8-0.2c-0.2-0.1-0.4-0.3-0.5-0.6c-0.1-0.2-0.2-0.5-0.2-0.8l0.1-3.7L58,7.8
		c-0.2-0.2-0.3-0.4-0.4-0.7C57.5,6.9,57.5,6.6,57.6,6.4z M48.6,22.5h5.7c0.4,0,0.7,0,1.1,0l5,0.2c9,0.6,17.9,1.8,26.7,3.6l3.3,0.7
		c0.7,0.2,1.4,0.3,2.1,0.5l1.2,0.3c1.7,0.4,3.4,0.8,5,1.3l1.5,0.4c5,1.4,9.1,2.6,12.8,4c0.1,0,0.1,0.1,0.2,0.1
		c0.1,0.1,0.1,0.1,0.1,0.2c0.1,0.1,0.1,0.3,0,0.5c-0.1,0.1-0.2,0.3-0.3,0.3c-0.1,0.1-0.3,0.1-0.5,0c-2-0.7-4.1-1.2-6.1-1.8l-0.3-0.1
		l-3.2-0.9L99.7,31c-4.4-1.1-8.8-2-13-2.7c-8.7-1.6-17.5-2.7-26.4-3l-5-0.2c-0.4,0-0.7,0-1.1,0h-0.6l-5,0c-0.4,0-0.7,0-1.1,0.1
		L42,25.5l-1.6,0.1c-2.4,0.2-4.5,0.5-6.5,0.9c-2.1,0.4-4.2,0.9-6.2,1.7c-0.9,0.3-1.8,0.8-2.6,1.4c-0.7,0.4-1.2,1.1-1.5,1.9
		c-0.2,0.8-0.1,1.6,0.3,2.3c0.4,0.9,1,1.7,1.6,2.5c1.4,1.6,3,3.2,4.6,4.6c0.1,0.1,0.2,0.3,0.2,0.4c0,0.2,0,0.3-0.1,0.4
		c-0.1,0.1-0.2,0.2-0.3,0.2c-0.1,0-0.3,0-0.4,0l-0.3-0.1c-1-0.4-1.9-1-2.8-1.6c-0.6-0.4-1-0.7-1.4-1c-0.4-0.3-0.9-0.8-1.3-1.2
		c-0.9-0.9-1.7-1.9-2.2-3c-0.3-0.6-0.5-1.3-0.6-2c-0.1-0.7-0.1-1.5,0.1-2.2c0.2-0.7,0.6-1.4,1-1.9c0.4-0.5,0.9-1,1.5-1.4
		c1-0.7,2.1-1.3,3.3-1.7c2.2-0.8,4.4-1.4,6.7-1.8c2.1-0.4,4.3-0.7,6.7-0.9l0.5,0l1.2-0.1l5.6-0.3C47.9,22.5,48.3,22.5,48.6,22.5
		L48.6,22.5z M0.6,26.4C1.1,25,1.9,23.7,3,22.7c2.1-1.9,4.5-3.4,7.1-4.4c4.4-1.8,9.4-2.9,15.6-3.6c2.8-0.3,5.4-0.4,8-0.4
		c1.4,0,2.8,0,4,0.1c1.3,0.1,2.7,0.2,4,0.5c0.1,0,0.2,0,0.2,0.1c0.1,0,0.1,0.1,0.2,0.2c0,0.1,0.1,0.1,0.1,0.2c0,0.1,0,0.2,0,0.2
		c0,0.2-0.1,0.3-0.2,0.4c-0.1,0.1-0.3,0.1-0.4,0.1c-2.6-0.2-5.2-0.2-7.7-0.1c-2.8,0.2-5.3,0.4-7.7,0.8c-2.6,0.4-5.1,0.8-7.6,1.5
		c-2.5,0.6-4.9,1.4-7.3,2.4c-2.3,0.9-4.4,2.2-6.2,3.9c-0.8,0.8-1.4,1.7-1.9,2.8c-0.4,1-0.5,2.1-0.4,3.2c0.2,1.2,0.5,2.3,1,3.3
		c0.5,1.1,1.2,2.2,1.9,3.2c1.5,2.1,3.2,4,5,5.8c0.1,0.1,0.2,0.3,0.2,0.5c0,0.2-0.1,0.3-0.2,0.4c-0.1,0.1-0.2,0.2-0.3,0.2
		c-0.1,0-0.3,0-0.4,0l-0.1-0.1c-2.2-1.6-4.2-3.4-5.9-5.5C3,37.4,2.2,36.2,1.5,35c-0.7-1.3-1.2-2.7-1.4-4.1
		C-0.1,29.4,0,27.8,0.6,26.4z"/>
	<path class="st0" d="M66,12.1l3.2,1.1L66,12.1L66,12.1z"/>
	<path class="st1" d="M1.5,35c0.7,1.2,1.5,2.4,2.4,3.4c1.8,2,3.7,3.9,5.9,5.5l0.1,0.1c0.1,0.1,0.2,0.1,0.4,0c0.1,0,0.2-0.1,0.3-0.2
		c0.1-0.1,0.2-0.3,0.2-0.4c0-0.2-0.1-0.3-0.2-0.5c-1.8-1.8-3.5-3.8-5-5.8c-0.7-1-1.4-2.1-1.9-3.2c-0.5-1-0.9-2.2-1-3.3
		c-0.1-1.1,0-2.2,0.4-3.2c0.4-1,1.1-2,1.9-2.8c1.8-1.7,3.9-3,6.2-3.9c2.4-1,4.8-1.8,7.3-2.4c2.5-0.6,5-1.1,7.6-1.5
		c2.4-0.4,5-0.6,7.7-0.8c2.6-0.2,5.2-0.2,7.7,0.1c0.2,0,0.3,0,0.4-0.1c0.1-0.1,0.2-0.2,0.2-0.4c0-0.1,0-0.2,0-0.2
		c0-0.1,0-0.2-0.1-0.2c0-0.1-0.1-0.1-0.2-0.2c-0.1,0-0.1-0.1-0.2-0.1c-1.3-0.3-2.7-0.4-4-0.5c-1.2-0.1-2.5-0.1-4-0.1
		c-2.5,0-5.1,0.1-7.9,0.4c-6.2,0.7-11.2,1.8-15.6,3.6c-2.6,1-5,2.5-7.1,4.4c-1.1,1-1.9,2.3-2.5,3.7c-0.5,1.4-0.7,3-0.5,4.5
		C0.3,32.3,0.8,33.7,1.5,35z"/>
	<path class="st1" d="M121.8,41.2c0.8,0.1,1.6,0.4,2.3,0.7c0.8,0.3,1.6,0.6,2.4,1c1.4,0.6,2.9,1.4,4.6,2.2c3.3,1.7,6.2,3.4,8.9,5.1
		c1.5,0.9,2.9,1.9,4.2,2.9c1.5,1.1,2.8,2.1,4,3.1c1.3,1.1,2.5,2.2,3.6,3.4c0.2,0.2,0.3,0.4,0.5,0.6l0.3,0.3c0.1,0.1,0.2,0.2,0.3,0.4
		c0.2,0.2,0.3,0.4,0.5,0.6c0.4,0.6,0.8,1.3,1.1,2c0.3,0.6,0.4,1.3,0.4,2c-0.1,0.6-0.3,1.3-0.7,1.8c-0.2,0.2-0.4,0.4-0.6,0.6
		l-0.6,0.5c-0.1,0.1-0.3,0.2-0.4,0.3l-0.5,0.3l-0.6,0.3c-0.3,0.2-0.6,0.3-1,0.4l-0.1,0c-1.6,0.6-3.1,1-4.8,1.4
		c-1.5,0.3-3.2,0.6-5,0.8c-2.9,0.3-6.2,0.6-10.2,0.7h-0.9c-1.4,0-2.8,0.1-4.3,0.1c-0.9,0-1.9,0-2.8,0c-0.8,0-1.6,0-2.4,0
		c-0.1,0-0.3,0.1-0.4,0.2c-0.1,0.1-0.2,0.2-0.2,0.4c0,0.1,0,0.2,0.1,0.4c0.1,0.1,0.2,0.2,0.3,0.2c0.1,0,0.1,0,0.2,0
		c6.1,0.4,13.4,0.8,20.8,0.1c3.2-0.3,6.9-0.8,10.4-2.1l0.1,0c0.4-0.2,0.8-0.3,1.2-0.5l0.6-0.3l0.6-0.4c0.2-0.1,0.4-0.3,0.6-0.4
		l0.2-0.1c0.1-0.1,0.3-0.2,0.4-0.3l0.1-0.1c0.3-0.3,0.6-0.6,0.9-1c0.7-0.9,1.1-1.9,1.2-3c0.1-1-0.1-2.1-0.6-3
		c-0.4-0.9-0.8-1.7-1.4-2.5c-0.2-0.3-0.4-0.5-0.6-0.7l-0.3-0.4l-0.3-0.3c-0.2-0.2-0.4-0.5-0.6-0.7c-1.2-1.3-2.5-2.5-3.9-3.6
		c-2.7-2.2-5.6-4.2-8.6-6c-3.2-1.9-6.2-3.5-9.2-4.9c-1.8-0.8-3.3-1.5-4.8-2.1c-1-0.4-1.7-0.7-2.5-0.9h-0.1c-0.8-0.3-1.7-0.5-2.6-0.6
		c-0.2,0-0.3,0-0.4,0.1c-0.1,0.1-0.2,0.2-0.2,0.4c0,0.1,0,0.2,0,0.2c0,0.1,0.1,0.2,0.1,0.2c0,0.1,0.1,0.1,0.2,0.2
		C121.6,41.2,121.7,41.2,121.8,41.2z"/>
	<path class="st1" d="M40.7,22.9l-0.5,0c-2.4,0.2-4.6,0.5-6.8,0.9c-2.3,0.4-4.5,1-6.7,1.8c-1.2,0.4-2.2,1-3.3,1.7
		c-0.6,0.4-1,0.9-1.5,1.4c-0.5,0.6-0.8,1.2-1,1.9c-0.2,0.7-0.3,1.5-0.1,2.2c0.1,0.7,0.3,1.4,0.6,2c0.6,1.1,1.3,2.1,2.2,3
		c0.4,0.4,0.8,0.8,1.3,1.2c0.5,0.4,0.9,0.7,1.4,1c0.9,0.6,1.8,1.1,2.8,1.6l0.3,0.1c0.1,0,0.2,0.1,0.4,0c0.1,0,0.2-0.1,0.3-0.2
		c0.1-0.1,0.2-0.3,0.2-0.4c0-0.2-0.1-0.3-0.2-0.4c-1.6-1.4-3.2-2.9-4.6-4.6c-0.6-0.8-1.2-1.6-1.6-2.5c-0.4-0.7-0.5-1.5-0.3-2.3
		c0.3-0.8,0.8-1.4,1.5-1.9c0.8-0.6,1.7-1,2.6-1.4c2-0.8,4.1-1.3,6.2-1.7c2-0.4,4.2-0.6,6.5-0.9l1.6-0.1l5.6-0.3c0.3,0,0.7,0,1.1-0.1
		l5,0h0.6c0.4,0,0.7,0,1.1,0l5,0.2c8.9,0.4,17.7,1.4,26.4,3c4.2,0.8,8.6,1.7,13,2.7l3.2,0.8l3.2,0.9l0.3,0.1c2,0.6,4.1,1.2,6.1,1.8
		c0.1,0.1,0.3,0,0.5,0c0.1-0.1,0.3-0.2,0.3-0.3c0.1-0.1,0.1-0.3,0-0.5c0-0.1-0.1-0.1-0.1-0.2c-0.1-0.1-0.1-0.1-0.2-0.1
		c-3.8-1.4-7.8-2.7-12.8-4L98.7,29c-1.6-0.4-3.3-0.9-5-1.3l-1.2-0.3c-0.7-0.2-1.4-0.3-2.1-0.5l-3.3-0.7c-8.8-1.8-17.7-3-26.7-3.6
		l-5-0.2c-0.4,0-0.7,0-1.1,0h-5.7c-0.4,0-0.7,0-1.1,0l-5.6,0.3L40.7,22.9z"/>
	<path class="st1" d="M129.3,63.3c-0.7,0.4-1.4,0.7-2.1,0.9c-0.8,0.2-1.5,0.4-2.3,0.6c-3.3,0.6-6.6,0.8-9.9,0.8
		c-3,0-6.3-0.1-10.1-0.3c-6.4-0.4-13-1.1-20.2-2c-3-0.4-6.3-0.9-10.1-1.4c-3.2-0.5-6.6-1-10-1.6c-0.2,0-0.3,0-0.4,0.1
		c-0.1,0.1-0.2,0.2-0.3,0.4c0,0.1,0,0.2,0,0.2c0,0.1,0,0.2,0.1,0.2c0.1,0.1,0.2,0.2,0.3,0.2l0.1,0c3.6,0.8,7.1,1.4,10,1.9
		c3.3,0.6,6.7,1.2,10.1,1.7c8.1,1.2,14.4,1.9,20.3,2.3c3.8,0.3,7.2,0.4,10.2,0.4c1.9,0,3.6-0.1,5.2-0.2c1.7-0.1,3.5-0.3,5.2-0.7
		c1.8-0.3,3.5-0.9,5.1-1.8c0.9-0.5,1.6-1.2,2.2-2.1c0.5-1,0.7-2.1,0.5-3.1c-0.2-0.9-0.6-1.8-1.1-2.7c-0.5-0.8-1-1.5-1.6-2.2
		c-1.2-1.3-2.4-2.5-3.8-3.6c-0.1-0.1-0.3-0.1-0.4-0.1s-0.3,0.1-0.4,0.2c-0.1,0.1-0.2,0.3-0.2,0.4c0,0.2,0.1,0.3,0.2,0.4
		c1.2,1.2,2.3,2.4,3.3,3.7c0.5,0.6,0.9,1.3,1.3,2c0.4,0.6,0.6,1.3,0.7,2.1c0.1,0.6,0,1.3-0.3,1.8C130.5,62.5,129.9,63,129.3,63.3z"
		/>
	<path class="st2" d="M60,6.4L59,6.7l3.2,3.1l-0.1,4.4l0.8-0.4l3.1-1.6h0l3.2,1.1l0.9,0.3l-0.2-1l-0.6-3.4L72,5.7l-3.5-0.5l-0.9-0.1
		l-2.5-3.6l-0.4,0.8l-1.5,3.1L60,6.4z"/>
	<path class="st1" d="M60.7,10.4l-0.1,3.7c0,0.3,0.1,0.5,0.2,0.8c0.1,0.2,0.3,0.4,0.5,0.6c0.2,0.1,0.5,0.2,0.8,0.2
		c0.2,0,0.5-0.1,0.7-0.2l3.3-1.8l3.5,1.2c0.2,0.1,0.3,0.1,0.5,0.1c0.4,0,0.7-0.1,1-0.4c0.2-0.2,0.4-0.4,0.4-0.6
		c0.1-0.2,0.1-0.5,0.1-0.8L71,9.6l2.3-3c0.2-0.2,0.3-0.5,0.3-0.7c0-0.3,0-0.5-0.1-0.8c-0.1-0.2-0.3-0.5-0.5-0.6
		c-0.2-0.2-0.5-0.3-0.7-0.3l-3.7-0.5l-2.1-3.1c-0.1-0.2-0.3-0.4-0.5-0.5C65.7,0,65.4,0,65.2,0h-0.1c-0.3,0-0.5,0.1-0.7,0.3
		c-0.2,0.1-0.4,0.3-0.5,0.6l-1.7,3.3l-3.6,1.1c-0.3,0.1-0.5,0.2-0.7,0.4c-0.2,0.2-0.3,0.4-0.4,0.7c-0.1,0.3-0.1,0.5,0,0.8
		c0.1,0.3,0.2,0.5,0.4,0.7L60.7,10.4z M63.2,5.4l1.5-3.1l0.4-0.8l2.5,3.6L72,5.7l-2.6,3.5l0.6,3.4l0.2,1l-0.9-0.3L66,12.1l-3.1,1.6
		l-0.8,0.4l0.1-4.4L59,6.7l0.9-0.3L63.2,5.4z"/>
	<path class="st2" d="M142.9,43.4l4.3,0.8l0.2,0.3l2.1,3.4l1.9-3.4l0.2-0.4l4.3-1.1l-3-3.2l0.3-4.4l-4,1.9l-4.1-1.6l0.6,4.4
		L142.9,43.4z"/>
	<path class="st1" d="M142.6,44.9l3.7,0.7l2,3.2c0.1,0.2,0.3,0.4,0.5,0.5c0.2,0.1,0.5,0.2,0.7,0.2h0c0.3,0,0.5-0.1,0.7-0.2
		c0.2-0.1,0.4-0.3,0.5-0.6l1.8-3.3l3.6-0.9c0.3-0.1,0.5-0.2,0.7-0.4c0.2-0.2,0.3-0.4,0.4-0.7c0.1-0.3,0.1-0.5,0-0.8
		c-0.1-0.3-0.2-0.5-0.4-0.7l-2.6-2.7l0.2-3.7c0-0.3,0-0.5-0.1-0.8c-0.1-0.2-0.3-0.4-0.5-0.6c-0.2-0.2-0.5-0.3-0.8-0.3
		c-0.2,0-0.4,0.1-0.6,0.1l-3.4,1.6l-3.5-1.4c-0.2-0.1-0.4-0.1-0.6-0.1c-0.3,0-0.7,0.1-0.9,0.3c-0.2,0.2-0.4,0.4-0.5,0.6
		c-0.1,0.2-0.1,0.5-0.1,0.8l0.5,3.7l-2.4,2.9c-0.2,0.2-0.3,0.4-0.3,0.7c0,0.3,0,0.5,0.1,0.8c0.1,0.2,0.2,0.5,0.4,0.6
		C142.1,44.7,142.3,44.8,142.6,44.9z M145.7,40l-0.6-4.4l4.1,1.6l4-1.9l-0.3,4.4l3,3.2l-4.3,1.1l-0.2,0.4l-1.9,3.4l-2.1-3.4
		l-0.2-0.3l-4.3-0.8L145.7,40z"/>
	<path class="st2" d="M40.3,54.2l4.4,0l3,3.2l1.4-4.2l4-1.8l-3.5-2.6L49,44.4L45.4,47L45,46.9l-3.9-0.8l1.3,4.2L40.3,54.2z"/>
	<path class="st1" d="M39,55c0.1,0.2,0.3,0.4,0.5,0.5c0.2,0.1,0.5,0.2,0.7,0.2h3.7l2.5,2.7c0.1,0.2,0.3,0.3,0.5,0.4s0.4,0.1,0.6,0.1
		c0.1,0,0.2,0,0.3,0c0.3-0.1,0.5-0.2,0.7-0.3c0.2-0.2,0.3-0.4,0.4-0.6l1.2-3.6l3.4-1.6c0.2-0.1,0.4-0.3,0.6-0.5
		c0.2-0.2,0.2-0.5,0.3-0.7c0-0.3,0-0.5-0.1-0.8c-0.1-0.2-0.3-0.4-0.5-0.6l-3-2.2l-0.5-3.7c0-0.3-0.1-0.5-0.3-0.7
		c-0.2-0.2-0.4-0.4-0.6-0.5c-0.2-0.1-0.4-0.1-0.6-0.1c-0.3,0-0.6,0.1-0.9,0.3l-3,2.2l-3.7-0.7c-0.1,0-0.2,0-0.3,0
		c-0.2,0-0.4,0-0.6,0.1c-0.2,0.1-0.4,0.2-0.5,0.4c-0.2,0.2-0.3,0.4-0.3,0.7c-0.1,0.3,0,0.5,0,0.8l1.1,3.6L39,53.5
		c-0.1,0.2-0.2,0.5-0.2,0.7C38.8,54.5,38.9,54.7,39,55z M41.1,46.2l3.9,0.8l0.4,0.1l3.6-2.6l0.6,4.4l3.5,2.6l-4,1.8l-1.4,4.2l-3-3.2
		h-4.4l2.1-3.8L41.1,46.2z"/>
	<path class="st2" d="M113.1,58l-0.8-3.8l-0.1-0.5l0.3-0.4l2.2-3.2l-3.9-0.4l-0.5-0.1l-2.6-3.5l-1.8,4l-4.2,1.4l3.1,2.8l0.1,0.1
		l0.1,4.4l0.4-0.2l3.4-1.9L113.1,58z"/>
	<path class="st1" d="M108.9,45.2c-0.1-0.2-0.3-0.3-0.5-0.4c-0.2-0.1-0.4-0.2-0.7-0.2h-0.2c-0.3,0-0.5,0.1-0.7,0.3
		c-0.2,0.2-0.4,0.4-0.5,0.6l-1.5,3.4l-3.5,1.2c-0.2,0.1-0.5,0.2-0.6,0.4c-0.2,0.2-0.3,0.4-0.3,0.7c-0.1,0.3,0,0.5,0,0.8
		c0.1,0.2,0.2,0.5,0.4,0.6l2.8,2.5l0.1,3.7c0,0.3,0.1,0.5,0.2,0.7c0.1,0.2,0.3,0.4,0.5,0.5c0.2,0.1,0.5,0.2,0.7,0.2
		c0.3,0,0.5-0.1,0.7-0.2l3.3-1.8l3.6,1.1c0.1,0,0.3,0.1,0.4,0.1c0.4,0,0.7-0.1,1-0.4c0.2-0.2,0.3-0.4,0.4-0.7c0.1-0.2,0.1-0.5,0-0.8
		l-0.8-3.7L116,51c0.1-0.2,0.2-0.5,0.3-0.7c0-0.3,0-0.5-0.1-0.8c-0.1-0.2-0.3-0.4-0.5-0.6c-0.2-0.2-0.5-0.3-0.7-0.3l-3.7-0.4
		L108.9,45.2z M108.9,56.7l-3.4,1.9l-0.4,0.2l-0.1-4.4l-0.1-0.1l-3.1-2.8l4.2-1.4l1.8-4l2.6,3.5l0.5,0.1l3.9,0.4l-2.5,3.6l0.1,0.5
		l0.8,3.8L108.9,56.7z"/>
</g>
</svg>
