<svg width="313" height="328" viewBox="0 0 313 328" fill="none" xmlns="http://www.w3.org/2000/svg">
<path d="M86.5072 301.923C84.6475 301.923 83.8031 302.959 83.8031 304.182C83.8031 305.876 84.9687 306.772 87.8386 307.808C94.1742 310.072 97.1996 312.693 97.1996 318.018C97.1996 323.23 93.7287 327.586 85.8597 327.586C79.3635 327.586 75.1622 324.437 75.1622 319.231C75.1622 317.091 75.8098 315.641 76.6542 314.791C76.7083 314.71 76.7804 314.643 76.8649 314.594C76.9493 314.546 77.0439 314.517 77.1411 314.511C77.2695 314.516 77.394 314.557 77.5009 314.628C77.6078 314.699 77.6931 314.799 77.7472 314.915C79.6432 318.262 82.8344 320.443 85.9011 320.443C87.9733 320.443 89.2114 319.717 89.2114 318.184C89.2114 316.651 87.9992 315.858 84.9531 314.874C79.9074 313.138 75.8719 310.636 75.8719 305.031C75.8719 299.825 79.5448 295.665 86.4865 295.665C90.3615 295.665 93.6717 296.799 95.8475 298.452C96.0046 298.561 96.1336 298.705 96.2236 298.874C96.3137 299.042 96.3624 299.23 96.3655 299.421C96.3655 300.633 94.9927 303.415 93.7753 304.912C93.7056 305.008 93.6147 305.087 93.5096 305.143C93.4045 305.199 93.2881 305.23 93.1692 305.233C93.0637 305.232 92.9594 305.21 92.8625 305.168C92.7655 305.126 92.6779 305.066 92.6046 304.99C90.579 303.021 88.3204 301.923 86.5072 301.923Z" fill="#111111"/>
<path d="M100.872 327.079C100.106 327.037 99.7017 326.877 99.6188 326.146C99.4582 324.333 99.3391 322.473 99.3391 320.536C99.3391 311.092 101.717 300.602 110.218 295.836C110.512 295.657 110.843 295.547 111.187 295.515C111.521 295.535 111.843 295.646 112.119 295.836C119.786 300.762 122.651 309.6 122.651 320.339C122.653 322.171 122.56 324.003 122.371 325.825C122.288 326.675 121.853 326.913 121.076 326.996C120.149 327.079 119.004 327.12 117.931 327.12C116.595 327.12 115.305 327.079 114.461 326.996C113.943 326.913 113.652 326.675 113.652 326.146C113.652 325.261 114.295 323.406 114.295 320.966C114.295 319.355 113.492 318.666 111.705 318.666C109.322 318.666 107.265 319.598 107.265 321.898C107.265 323.712 107.705 325.209 107.705 326.255C107.747 326.701 107.586 326.939 107.063 327.022C106.172 327.105 104.991 327.146 103.67 327.146C102.649 327.12 101.8 327.12 100.872 327.079ZM111.373 313.356C112.342 313.273 112.989 313.232 113.476 313.154C113.963 313.076 114.119 312.75 114.119 312.185C114.119 309.642 112.829 306.212 111.617 304.477C111.414 304.233 111.295 304.073 111.135 304.073C110.974 304.073 110.772 304.192 110.529 304.477C108.508 306.777 107.498 311.056 107.498 313.636C107.498 313.998 107.664 314.123 107.902 314.123C108.379 314.123 109.627 313.475 111.373 313.356Z" fill="#111111"/>
<path d="M127.386 327.079C126.577 327.037 126.137 326.675 126.013 325.525C125.769 322.619 125.65 319.308 125.65 315.957C125.621 309.954 125.967 303.956 126.686 297.996C126.888 296.623 127.204 296.344 128.24 296.261C129.007 296.219 130.012 296.183 131.064 296.183C132.115 296.183 133.136 296.219 134.172 296.261C134.939 296.302 135.343 296.546 135.26 297.354C135.182 299.25 133.809 305.181 133.809 308.611C133.809 308.979 133.928 309.175 134.172 309.175C134.415 309.175 134.737 308.937 135.208 308.29C137.912 305.829 139.927 301.146 140.818 297.411C141.02 296.608 141.3 296.323 141.854 296.281C142.782 296.204 143.875 296.162 144.963 296.162C146.133 296.162 147.263 296.204 148.029 296.281C148.677 296.323 148.962 296.608 148.962 297.131C148.962 300.156 147.024 305.808 143.512 309.564C143.396 309.646 143.301 309.756 143.238 309.883C143.175 310.011 143.144 310.152 143.15 310.294C143.15 310.435 143.183 310.574 143.246 310.7C143.309 310.825 143.4 310.935 143.512 311.02C146.74 314.086 149.283 320.422 149.283 325.83C149.283 326.68 148.962 327.084 148.247 327.125C147.403 327.167 146.392 327.203 145.18 327.203C144.144 327.203 143.041 327.167 141.994 327.084C140.948 327.001 140.782 326.597 140.699 325.628C139.694 317.884 138.156 314.853 136.14 314.853C135.172 314.853 134.068 316.226 134.068 318.283C134.068 320.909 134.996 324.54 134.996 325.913C135.018 326.07 135.004 326.231 134.956 326.382C134.909 326.533 134.828 326.672 134.719 326.788C134.611 326.904 134.479 326.995 134.331 327.053C134.183 327.112 134.025 327.136 133.866 327.125C133.017 327.203 131.965 327.203 130.836 327.203C129.567 327.157 128.313 327.157 127.386 327.079Z" fill="#111111"/>
<path d="M153.417 327.079C152.526 327.037 152.044 326.877 152.003 325.908C151.925 324.131 151.884 322.152 151.884 320.096C151.884 312.91 152.448 304.353 153.899 297.333C153.936 297.055 154.063 296.796 154.26 296.596C154.457 296.396 154.714 296.266 154.992 296.224C156.484 296.105 159.592 296.022 162.819 296.022C166.332 296.022 169.885 296.105 171.901 296.266C172.507 296.307 172.667 296.551 172.667 296.831C172.289 298.839 171.713 300.805 170.947 302.7C170.905 302.835 170.819 302.952 170.703 303.033C170.586 303.113 170.446 303.153 170.305 303.145C169.873 303.1 169.451 302.99 169.051 302.819C167.292 302.247 165.452 301.962 163.602 301.975C162.27 301.975 161.529 302.213 161.011 302.741C160.405 303.425 160.079 305.202 160.079 306.777C160.079 307.621 160.447 307.984 161.172 307.984C162.581 307.984 164.441 307.342 166.741 307.342C168.393 307.342 169.606 307.621 169.606 308.352C169.606 309.196 168.798 312.387 168.316 313.838C168.155 314.325 167.995 314.444 167.668 314.444C167.104 314.444 165.327 313.796 163.472 313.796C160.809 313.796 159.882 314.889 159.882 316.905C159.882 319.733 160.524 320.298 162.581 320.298C165.216 320.312 167.817 319.696 170.165 318.5C170.569 318.298 170.683 318.179 170.932 318.179C171.05 318.181 171.165 318.222 171.258 318.295C171.351 318.368 171.419 318.469 171.45 318.583C171.968 319.956 172.657 324.432 172.657 325.97C172.662 326.124 172.636 326.276 172.578 326.419C172.521 326.561 172.434 326.689 172.323 326.796C172.213 326.903 172.081 326.985 171.937 327.037C171.793 327.089 171.639 327.111 171.486 327.1C168.865 327.219 165.757 327.26 162.768 327.26C159.229 327.239 155.836 327.198 153.417 327.079Z" fill="#111111"/>
<path d="M184.494 327.079C184.215 327.087 183.941 326.994 183.726 326.815C183.51 326.637 183.367 326.386 183.323 326.11C182.759 324.411 182.355 319.531 182.355 313.796C182.355 308.31 182.795 302.135 183.909 297.219C183.976 296.997 184.114 296.803 184.3 296.665C184.487 296.527 184.713 296.452 184.945 296.452C187.126 296.25 189.83 296.173 192.534 296.173C195.124 296.173 197.455 296.209 199.357 296.411C200.04 296.494 200.16 296.815 200.16 297.219C200.16 298.877 199.517 302.954 198.668 304.606C198.616 304.713 198.535 304.803 198.436 304.866C198.336 304.93 198.221 304.966 198.103 304.969C197.823 304.952 197.549 304.883 197.295 304.767C195.995 304.261 194.613 304.001 193.218 304C192.208 304 191.607 304.125 191.146 304.565C190.628 305.083 190.338 307.026 190.338 309.046C190.338 310.336 190.902 310.662 191.83 310.662C193.384 310.662 195.021 309.896 197.683 309.896C198.719 309.896 199.175 310.098 199.175 310.662C199.167 313.019 198.909 315.369 198.403 317.671C198.371 317.804 198.293 317.921 198.183 318.003C198.074 318.084 197.939 318.124 197.802 318.117C197.238 318.117 195.622 317.837 193.726 317.837C191.99 317.837 191.021 318.319 191.021 319.909C191.021 322.126 192.311 325.556 192.311 326.203C192.311 326.721 191.949 326.97 191.223 327.053C190.819 327.094 189.327 327.131 187.913 327.131C186.499 327.131 185.017 327.12 184.494 327.079Z" fill="#111111"/>
<path d="M207.656 327.157C206.362 327.186 205.068 327.132 203.781 326.996C203.216 326.913 202.978 326.716 202.776 326.027C202.413 324.473 202.009 319.246 202.009 313.879C202.009 304.715 202.936 298.986 203.382 297.302C203.418 297.031 203.545 296.78 203.743 296.592C203.941 296.403 204.197 296.288 204.47 296.266C205.599 296.188 206.811 296.147 208.018 296.147C209.313 296.147 210.608 296.188 211.733 296.266C212.219 296.307 212.463 296.509 212.422 296.991C212.422 298.084 210.562 303.451 210.562 311.724C210.562 319.8 212.22 325.53 212.22 326.338C212.22 326.82 211.976 326.98 211.494 327.022C210.219 327.148 208.937 327.193 207.656 327.157Z" fill="#111111"/>
<path d="M215.768 327.079C214.732 327.037 214.437 326.514 214.437 325.525C214.437 320.277 217.426 315.071 220.814 310.388C223.72 306.471 224.958 304.689 224.958 304.011C224.958 303.689 224.756 303.493 224.352 303.493C220.56 303.493 218.016 305.145 216.965 305.145C216.803 305.152 216.645 305.104 216.513 305.011C216.382 304.917 216.285 304.782 216.24 304.627C215.575 302.23 215.182 299.766 215.069 297.281C215.069 296.634 215.431 296.354 216.359 296.313C218.7 296.152 222.212 296.069 225.683 296.069C229.154 296.069 232.584 296.111 234.806 296.313C235.692 296.354 235.894 296.675 235.894 297.349C235.894 300.659 232.506 306.43 229.071 311.439C226.206 315.433 224.958 317.733 224.958 319.023C224.958 319.629 225.279 319.951 225.994 319.951C230.356 319.951 232.775 317.816 233.946 317.816C234.105 317.814 234.259 317.87 234.378 317.974C234.498 318.079 234.574 318.224 234.594 318.381C235.1 320.798 235.371 323.258 235.402 325.727C235.402 326.53 235.075 327.017 233.987 327.058C231.527 327.136 228.092 327.177 224.746 327.177C221.399 327.177 218.089 327.157 215.768 327.079Z" fill="#111111"/>
<path d="M238.292 327.079C237.256 327.037 236.961 326.514 236.961 325.525C236.961 320.277 239.95 315.071 243.338 310.388C246.244 306.471 247.482 304.689 247.482 304.011C247.482 303.689 247.28 303.493 246.876 303.493C243.084 303.493 240.541 305.145 239.489 305.145C239.328 305.152 239.169 305.104 239.037 305.011C238.906 304.917 238.81 304.782 238.764 304.627C238.099 302.23 237.706 299.766 237.593 297.281C237.593 296.634 237.956 296.354 238.883 296.313C241.224 296.152 244.737 296.069 248.208 296.069C251.678 296.069 255.108 296.111 257.33 296.313C258.216 296.354 258.418 296.675 258.418 297.349C258.418 300.659 255.03 306.43 251.596 311.439C248.731 315.433 247.482 317.733 247.482 319.023C247.482 319.629 247.804 319.951 248.518 319.951C252.88 319.951 255.3 317.816 256.47 317.816C256.629 317.814 256.783 317.87 256.902 317.974C257.022 318.079 257.099 318.224 257.118 318.381C257.624 320.798 257.895 323.258 257.926 325.727C257.926 326.53 257.6 327.017 256.512 327.058C254.051 327.136 250.616 327.177 247.27 327.177C243.923 327.177 240.587 327.157 238.292 327.079Z" fill="#111111"/>
<path d="M312.532 209.982C312.532 209.66 312.532 209.35 312.532 209.034C312.501 207.977 312.465 206.941 312.424 205.925C312.372 204.672 312.311 203.463 312.242 202.299C312.092 199.864 311.906 197.637 311.678 195.694C311.638 195.392 311.581 195.093 311.507 194.798C311.328 194.079 311.01 193.403 310.569 192.809L310.496 192.7C309.84 191.886 308.951 191.291 307.948 190.995C307.43 190.814 306.777 190.628 306.104 190.441C305.01 190.141 303.778 189.845 302.477 189.566L301.488 189.379C301.161 189.312 300.825 189.244 300.504 189.187C300.409 189.173 300.316 189.145 300.229 189.105H300.048C298.494 188.83 297.105 188.633 296.064 188.54C295.835 188.519 295.604 188.519 295.375 188.54L295.142 188.571C294.998 188.592 294.856 188.623 294.717 188.664L294.453 188.742C294.315 188.794 294.182 188.856 294.054 188.928C294.003 188.946 293.955 188.968 293.909 188.996C291.743 190.26 289.588 191.545 287.444 192.85C287.286 192.947 287.11 193.01 286.927 193.036C286.744 193.062 286.557 193.051 286.379 193.002C286.2 192.954 286.033 192.869 285.889 192.754C285.744 192.639 285.625 192.495 285.537 192.332L285.423 192.109C285.211 191.695 285.004 191.306 284.812 190.944C284.766 190.861 284.724 190.778 284.677 190.7C284.491 190.343 284.31 190.016 284.159 189.716L284.092 189.586C283.854 189.167 283.647 188.804 283.46 188.493L282.875 187.737C282.801 187.642 282.748 187.532 282.72 187.415C282.692 187.298 282.689 187.176 282.711 187.058C282.733 186.94 282.779 186.827 282.848 186.728C282.916 186.629 283.005 186.546 283.108 186.483C286.109 184.649 289.126 182.854 292.158 181.096C292.174 181.085 292.19 181.073 292.205 181.059C292.449 180.914 292.675 180.74 292.878 180.541C292.924 180.499 292.967 180.454 293.008 180.407C293.179 180.228 293.332 180.032 293.463 179.821C293.515 179.749 293.562 179.671 293.608 179.593C293.729 179.375 293.832 179.148 293.919 178.915C293.956 178.822 293.997 178.733 294.028 178.635C294.147 178.275 294.235 177.906 294.292 177.532C294.396 176.786 294.494 175.978 294.588 175.175C295.24 169.398 295.624 161.788 295.712 153.339C295.712 152.039 295.712 150.749 295.712 149.464C295.712 146.061 295.639 142.73 295.53 139.559C295.53 138.808 295.473 138.067 295.442 137.337C295.401 136.301 295.349 135.265 295.292 134.301C295.147 131.644 294.966 129.121 294.748 126.8C294.603 125.281 294.446 123.849 294.277 122.506C294.194 121.848 294.111 121.216 294.023 120.604C293.914 119.879 293.805 119.18 293.696 118.532C293.571 117.693 293.243 116.897 292.741 116.213C292.239 115.529 291.579 114.978 290.816 114.606C290.718 114.559 290.625 114.507 290.521 114.466H290.485C290.256 114.381 290.022 114.31 289.785 114.253C289.478 114.187 289.167 114.145 288.853 114.129H288.656C287.402 114.031 285.807 113.984 284.066 113.999H282.927L282.144 114.025C279.554 114.098 277.482 114.222 276.083 114.383C275.565 114.439 275.062 114.594 274.602 114.839C271.98 116.241 269.371 117.674 266.774 119.138C266.331 119.384 265.813 119.458 265.318 119.347C264.824 119.236 264.387 118.948 264.091 118.537L264.029 118.449C263.656 117.931 263.324 117.481 263.055 117.128L263.003 117.066C262.15 115.938 260.936 115.137 259.563 114.797C259.487 114.77 259.409 114.748 259.33 114.73C259.154 114.699 258.993 114.678 258.812 114.663H258.558C257.848 114.631 257.087 114.606 256.289 114.59C255.491 114.574 254.564 114.559 253.699 114.59C252.715 114.59 251.751 114.626 250.793 114.668C249.969 114.699 249.145 114.74 248.316 114.787C248.244 114.787 248.177 114.787 248.109 114.787C247.718 114.843 247.335 114.947 246.969 115.098C246.777 115.174 246.59 115.264 246.41 115.367C246.327 115.414 246.244 115.44 246.167 115.486C244.022 116.792 241.884 118.118 239.753 119.465C239.418 119.729 239.004 119.873 238.577 119.873C238.15 119.873 237.736 119.729 237.401 119.465C237.054 119.185 235.847 118.268 235.847 118.31L235.785 118.263C235.031 117.756 234.245 117.297 233.433 116.89L233.091 116.719C232.299 116.329 231.487 115.983 230.656 115.683L230.496 115.621C229.607 115.306 228.703 115.036 227.787 114.813L227.165 114.668C226.212 114.45 225.238 114.258 224.222 114.124H224.031C222.183 113.894 220.323 113.783 218.462 113.792C217.654 113.792 216.84 113.792 216.022 113.834H215.582C214.963 113.865 214.347 113.911 213.732 113.974C208.438 114.455 204.133 115.88 200.952 118.206L199.025 119.62C198.973 119.653 198.914 119.672 198.852 119.673C198.791 119.675 198.73 119.659 198.677 119.629C198.623 119.599 198.579 119.554 198.55 119.501C198.52 119.447 198.505 119.386 198.507 119.325V119.278C198.521 119.106 198.521 118.933 198.507 118.76C198.505 118.524 198.484 118.289 198.445 118.056C198.442 118.035 198.442 118.014 198.445 117.994C198.402 117.781 198.347 117.572 198.279 117.367C198.279 117.336 198.279 117.299 198.279 117.263C198.214 117.098 198.14 116.937 198.056 116.781C198.025 116.719 198.005 116.647 197.968 116.584C197.849 116.367 197.708 116.163 197.549 115.973C197.153 115.514 196.668 115.14 196.125 114.873C195.581 114.606 194.988 114.452 194.383 114.419C192.881 114.29 191.151 114.176 189.037 114.082C188.333 114.051 187.592 114.02 186.799 113.994L185.354 113.958L183.09 113.927H182.997C182.142 113.927 181.303 113.927 180.484 113.927C180.163 113.927 179.837 113.927 179.521 113.927H179.236C178.774 113.969 178.319 114.071 177.884 114.233L177.703 114.305C177.319 114.45 176.958 114.649 176.63 114.896C172.707 118.004 168.823 121.171 164.98 124.396C164.848 124.508 164.685 124.577 164.513 124.594C164.342 124.611 164.169 124.576 164.017 124.493C163.866 124.41 163.743 124.283 163.665 124.129C163.587 123.975 163.558 123.801 163.581 123.63C163.628 123.272 163.664 123.008 163.664 122.977C164.125 119.558 164.285 118.315 164.254 117.507C164.254 117.393 164.254 117.284 164.254 117.175C164.189 116.697 164.058 116.23 163.866 115.787C163.866 115.73 163.824 115.678 163.799 115.626C163.627 115.28 163.409 114.96 163.151 114.673C163.065 114.562 162.971 114.456 162.871 114.357C162.496 114.026 162.066 113.761 161.602 113.575C161.452 113.512 161.322 113.435 161.162 113.378C161.001 113.321 160.913 113.336 160.799 113.305C160.517 113.226 160.23 113.169 159.939 113.134C158.903 113.005 157.39 112.844 155.676 112.689L153.521 112.513L151.386 112.368H151.345C149.863 112.274 148.465 112.207 147.258 112.166H146.708C145.994 112.166 145.377 112.134 144.849 112.14H144.186C143.927 112.145 143.669 112.169 143.414 112.212L143.232 112.264C143.042 112.302 142.855 112.354 142.673 112.419L142.502 112.502C142.323 112.574 142.15 112.659 141.984 112.756C141.925 112.795 141.868 112.836 141.813 112.88C141.695 112.954 141.583 113.035 141.476 113.124C137.118 116.982 132.809 120.926 128.551 124.956C128.383 125.114 128.172 125.217 127.944 125.252C127.717 125.287 127.484 125.253 127.276 125.153C127.069 125.053 126.896 124.893 126.782 124.693C126.667 124.493 126.616 124.263 126.634 124.034C126.743 122.791 126.847 121.635 126.945 120.589C127.246 117.273 127.365 115.984 127.323 115.155C127.321 115.112 127.321 115.068 127.323 115.025C127.323 114.906 127.323 114.797 127.287 114.694C127.168 113.875 126.849 113.097 126.36 112.43C125.953 111.913 125.446 111.484 124.869 111.169C124.292 110.854 123.657 110.659 123.003 110.596C121.537 110.363 119.221 110.042 116.787 109.772L116.336 109.726L114.316 109.524C112.445 109.347 110.959 109.223 109.752 109.145H109.721L108.684 109.083C107.975 109.047 107.384 109.031 106.887 109.031H106.84C106.757 109.031 106.685 109.031 106.602 109.063C106.44 109.069 106.279 109.087 106.12 109.114C105.996 109.14 105.877 109.176 105.758 109.208C105.638 109.239 105.524 109.275 105.41 109.322C105.306 109.363 105.204 109.41 105.105 109.461C104.987 109.519 104.873 109.583 104.763 109.653C104.67 109.715 104.576 109.777 104.488 109.845L104.447 109.876L102.696 111.508C102.639 111.56 102.57 111.598 102.495 111.617C102.421 111.637 102.342 111.638 102.267 111.62C102.192 111.602 102.122 111.566 102.064 111.515C102.006 111.464 101.962 111.399 101.934 111.326C101.888 111.197 101.841 111.067 101.784 110.933C101.727 110.798 101.701 110.767 101.66 110.679C101.618 110.591 101.525 110.425 101.447 110.295C101.37 110.166 101.333 110.119 101.271 110.031C101.209 109.943 101.08 109.783 100.971 109.658C100.862 109.534 100.826 109.493 100.738 109.41C100.61 109.288 100.475 109.174 100.334 109.068C100.24 108.995 100.152 108.923 100.049 108.855C99.8657 108.741 99.6754 108.639 99.4789 108.55C99.3753 108.503 99.2873 108.446 99.1785 108.399C98.8313 108.263 98.4724 108.159 98.1061 108.089C95.7853 107.685 93.0604 107.291 90.1802 106.954C87.792 106.664 85.5178 106.462 83.3265 106.332C83.0727 106.332 82.8084 106.291 82.5494 106.281H82.3008C82.1269 106.293 81.9539 106.315 81.7827 106.348C81.6843 106.348 81.5755 106.348 81.4771 106.389C81.3009 106.433 81.1279 106.489 80.9591 106.555C80.8762 106.586 80.7829 106.602 80.7052 106.638C80.5118 106.724 80.3263 106.826 80.1509 106.944C80.1147 106.944 80.068 106.985 80.0318 107.011C79.825 107.157 79.6325 107.321 79.4568 107.503C79.4356 107.527 79.4131 107.549 79.3894 107.571C77.913 109.125 77.4779 109.695 76.017 111.269C75.8822 111.394 75.7236 111.489 75.5507 111.55C75.3778 111.61 75.1943 111.635 75.0115 111.623C74.8287 111.61 74.6503 111.56 74.4874 111.476C74.3245 111.392 74.1804 111.276 74.064 111.135L73.893 110.933C73.5356 110.534 73.1574 110.145 72.7637 109.767C70.5386 107.721 67.9623 106.095 65.1589 104.965C61.2788 103.333 56.7615 102.261 51.6899 101.339C50.4259 101.105 49.0997 100.883 47.7891 100.665C46.3645 100.432 44.9658 100.209 43.6085 100.002L40.894 99.6032H40.806C37.2315 99.0851 34.201 98.7329 32.3827 98.5671C32.0228 98.5287 31.6598 98.5287 31.2999 98.5671H31.2637C30.9982 98.5941 30.7361 98.6479 30.4814 98.7277C30.3467 98.7691 30.2224 98.8313 30.0878 98.8831C29.9531 98.9349 29.8961 98.966 29.808 99.0126C29.6432 99.1041 29.4856 99.208 29.3366 99.3234L29.233 99.4011C29.0603 99.5418 28.9008 99.6979 28.7564 99.8674C19.1278 111.351 9.84802 123.265 0.917042 135.612C0.100282 136.884 -0.186088 138.426 0.119244 139.907C1.85467 152.707 3.79731 162.291 7.37177 176.314C9.68222 185.333 12.0341 188.333 14.557 194.746C14.9853 195.84 15.1503 197.02 15.0387 198.19C14.9271 199.36 14.5421 200.487 13.9146 201.48C9.98787 207.721 6.15095 214.057 2.40381 220.487C1.61361 221.945 1.2695 223.602 1.41434 225.253C1.41434 225.367 1.41434 225.486 1.44542 225.606C2.0049 230.076 4.91629 246.151 5.80214 249.477C6.76569 253.103 8.75494 253.87 10.164 253.46C10.2468 253.434 10.3281 253.403 10.4075 253.367C11.3503 252.937 12.1533 251.979 13.0857 250.875C13.5572 250.311 14.0804 249.699 14.6399 249.109C14.8818 248.864 15.1863 248.689 15.5204 248.605C15.8544 248.521 16.2052 248.529 16.5346 248.63C16.8641 248.731 17.1595 248.92 17.389 249.177C17.6185 249.434 17.7731 249.749 17.8361 250.088C17.9708 250.839 18.1159 251.642 18.2713 252.533C18.6702 254.771 20.0844 261.92 21.8976 271.017C22.9337 277.14 24.6276 286.558 26.2025 292.826C26.5599 294.251 26.9381 295.8 27.3059 297.338V297.421C28.5751 302.747 29.7355 307.989 29.751 308.025C29.9496 308.65 30.2934 309.219 30.7543 309.684C31.2152 310.15 31.7801 310.5 32.4025 310.705C33.0248 310.911 33.687 310.965 34.3347 310.865C34.9823 310.765 35.5969 310.513 36.1281 310.129L50.6331 299.851C51.5387 299.208 52.2415 298.32 52.6586 297.292C53.1767 296.028 53.8605 294.24 54.4614 292.66C54.561 292.393 54.7399 292.163 54.9742 292C55.2085 291.837 55.4868 291.75 55.7721 291.75C56.0573 291.75 56.3357 291.837 56.5699 292C56.8042 292.163 56.9831 292.393 57.0827 292.66L57.2277 293.054C57.3492 293.341 57.5291 293.599 57.7558 293.812C57.9826 294.025 58.2513 294.188 58.5447 294.291C58.8382 294.395 59.15 294.436 59.4602 294.412C59.7704 294.388 60.0722 294.299 60.3463 294.152L72.3959 287.542C74.2625 286.516 75.7702 284.943 76.7163 283.035L77.9337 280.59C78.0098 280.436 78.1253 280.304 78.2684 280.208C78.4116 280.113 78.5774 280.057 78.7492 280.046C78.921 280.035 79.0927 280.069 79.2469 280.146C79.4012 280.222 79.5325 280.338 79.6277 280.481C80.1672 281.293 80.9724 281.893 81.9053 282.176C82.8381 282.46 83.8406 282.41 84.7408 282.035L90.7085 279.549C92.699 278.718 94.3194 277.192 95.2673 275.254L95.7853 274.161C95.8713 273.985 96.0033 273.836 96.1673 273.729C96.3313 273.623 96.5212 273.562 96.7168 273.555C96.9124 273.547 97.1063 273.593 97.278 273.687C97.4496 273.781 97.5926 273.92 97.6917 274.089C98.0701 274.731 98.656 275.225 99.3528 275.49C100.05 275.754 100.816 275.774 101.525 275.544L108.115 273.405C108.927 273.141 109.675 272.71 110.311 272.14C110.947 271.57 111.457 270.873 111.808 270.095L112.466 268.639C112.549 268.445 112.682 268.276 112.85 268.149C113.019 268.022 113.217 267.941 113.427 267.915C113.636 267.888 113.849 267.916 114.044 267.997C114.239 268.078 114.409 268.208 114.538 268.375L114.647 268.509C115.199 269.198 115.928 269.724 116.755 270.03C117.583 270.337 118.478 270.413 119.346 270.25L139.238 266.525C140.015 266.379 140.745 266.046 141.366 265.557C141.986 265.067 142.479 264.434 142.802 263.712L143.429 262.319C143.515 262.115 143.659 261.941 143.844 261.819C144.028 261.696 144.244 261.631 144.465 261.631C144.687 261.631 144.903 261.696 145.087 261.819C145.271 261.941 145.416 262.115 145.501 262.319C145.939 263.275 146.655 264.077 147.557 264.619C148.458 265.161 149.502 265.417 150.552 265.355L169.455 264.23C170.637 264.161 171.776 263.763 172.744 263.081C173.711 262.399 174.469 261.461 174.931 260.371L175.092 259.962C175.167 259.782 175.294 259.629 175.456 259.522C175.619 259.414 175.809 259.357 176.003 259.357C176.198 259.357 176.388 259.414 176.551 259.522C176.713 259.629 176.84 259.782 176.915 259.962C177.392 261.119 178.199 262.11 179.235 262.811C180.272 263.512 181.492 263.892 182.743 263.904L199.217 264.039C200.089 264.049 200.931 263.722 201.569 263.127L202.817 261.967C203.003 261.794 203.221 261.661 203.459 261.573C203.697 261.486 203.95 261.446 204.203 261.457C204.457 261.467 204.705 261.528 204.935 261.635C205.165 261.742 205.371 261.893 205.542 262.081C207.241 263.899 210.831 266.691 216.825 266.691C222.383 266.691 225.668 265.406 227.408 264.376C227.624 264.247 227.866 264.167 228.116 264.141C228.366 264.116 228.619 264.145 228.856 264.227C229.094 264.309 229.311 264.441 229.492 264.615C229.673 264.79 229.814 265.001 229.905 265.235L230.201 265.976C230.362 266.378 230.603 266.742 230.909 267.047C231.216 267.353 231.581 267.593 231.983 267.753L249.839 274.835C250.61 275.139 251.447 275.233 252.265 275.11C253.084 274.986 253.856 274.648 254.502 274.13L256.108 272.845C256.332 272.657 256.604 272.536 256.894 272.496C257.184 272.455 257.479 272.498 257.746 272.618C258.013 272.738 258.24 272.931 258.402 273.175C258.564 273.418 258.654 273.703 258.662 273.995L258.745 275.845C258.78 276.683 259.039 277.497 259.494 278.202C259.949 278.907 260.585 279.478 261.335 279.854L269.851 284.076C271.257 284.778 272.833 285.068 274.397 284.912C275.961 284.756 277.449 284.161 278.689 283.196C285.097 278.217 297.794 267.655 306.047 261.956C306.767 261.485 307.492 261.003 308.207 260.542L308.357 260.423L308.549 260.267L308.637 260.195L308.746 260.076C308.857 259.973 308.961 259.862 309.056 259.744C309.124 259.661 309.181 259.558 309.248 259.464C309.315 259.371 309.414 259.226 309.486 259.092C309.559 258.957 309.637 258.765 309.709 258.573C309.782 258.382 309.807 258.356 309.849 258.232C309.964 257.894 310.053 257.547 310.113 257.195C311.061 251.243 311.859 242.219 312.263 232.33C312.62 224.43 312.698 216.726 312.532 209.982ZM151.723 196.787C151.831 196.946 151.962 197.087 152.112 197.207C151.963 197.086 151.832 196.945 151.723 196.787C151.723 197.082 151.682 197.378 151.666 197.668C151.687 197.378 151.702 197.082 151.723 196.787Z" fill="#111111"/>
<path d="M299.654 191.741H299.711L300.105 191.809L299.317 191.674L299.654 191.741Z" fill="#111111"/>
<path d="M291.676 176.957C291.78 176.2 291.873 175.402 291.966 174.558C291.873 175.397 291.78 176.2 291.676 176.957Z" fill="#111111"/>
<path d="M259.014 117.434C258.947 117.434 258.874 117.434 258.801 117.403L259.014 117.434Z" fill="#111111"/>
<path d="M223.73 116.843H224.005L223.585 116.802L223.73 116.843Z" fill="#111111"/>
<path d="M106.913 112.109C106.946 112.106 106.978 112.106 107.011 112.109C106.888 112.115 106.767 112.136 106.649 112.171C106.735 112.144 106.823 112.123 106.913 112.109Z" fill="#111111"/>
<path d="M82.5442 109.389C82.3865 109.404 82.2304 109.433 82.078 109.477C82.2301 109.432 82.3862 109.402 82.5442 109.389Z" fill="#111111"/>
<path d="M289.449 117.714C290.241 117.895 290.759 118.408 290.956 119.48C292.407 127.733 293.09 141.186 293.028 153.894C292.971 162.923 292.51 171.704 291.697 177.775C291.453 179.365 290.77 179.909 289.262 179.77C287.755 179.63 285.05 179.293 282.642 178.946C281.937 178.842 281.258 178.749 280.632 178.645C279.885 178.536 279.145 178.386 278.414 178.195C276.746 177.728 276.285 177.35 275.902 175.667C272.193 163.115 267.396 152.681 262.366 144.812C261.905 144.149 261.521 143.828 261.159 143.776C260.382 143.735 260.086 144.559 260.122 145.465C260.169 158.084 263.619 173.683 263.619 174.77C263.619 175.858 263.039 176.138 262.122 176.097C260.604 176.071 258.169 175.858 255.807 175.579L254.15 175.382C252.471 175.169 250.912 174.936 249.7 174.703C248.487 174.47 247.85 173.999 247.669 172.957C246.27 165.399 245.472 156.479 245.146 148.138C244.628 135.415 245.26 123.837 246.467 120.123C246.618 119.646 246.902 119.224 247.288 118.906C247.673 118.588 248.141 118.388 248.638 118.33C250.238 118.237 252.077 118.149 253.922 118.128C255.683 118.102 257.439 118.159 258.801 118.211C258.888 118.218 258.975 118.23 259.06 118.247C259.816 118.406 260.484 118.845 260.931 119.475C264.313 123.873 270.773 134.224 278.119 152.008C278.337 152.453 278.544 152.635 278.808 152.681C279.368 152.718 279.751 152.282 279.746 151.568C279.658 134.809 275.275 122.153 275.218 119.517C275.193 119.116 275.326 118.722 275.59 118.42C275.854 118.118 276.227 117.933 276.627 117.905C278.3 117.714 280.772 117.589 283.258 117.527C285.144 117.466 287.032 117.5 288.915 117.631C289.095 117.644 289.273 117.671 289.449 117.714Z" fill="#FE5000"/>
<path d="M273.488 187.918C273.907 187.975 274.332 188.043 274.752 188.11C276.394 188.369 278.041 188.716 279.316 189.016C279.734 189.152 280.121 189.369 280.455 189.655C280.788 189.942 281.061 190.292 281.258 190.685C284.294 195.813 290.024 207.65 296.23 227.704C296.432 228.258 296.639 228.486 296.924 228.579C297.406 228.657 297.722 228.284 297.742 227.59C298.209 210.178 294.531 196.145 294.556 193.399C294.556 192.498 295.074 191.949 295.919 192.016C297.038 192.12 298.54 192.337 300.151 192.622C300.778 192.736 301.42 192.855 302.063 192.985C303.831 193.333 305.578 193.783 307.295 194.332C308.331 194.637 308.968 195.29 309.15 196.709C310.217 205.63 310.372 219.824 309.859 233.045C309.492 242.447 308.761 251.497 307.787 257.615C307.564 258.889 307.114 259.402 306.233 259.294C305.977 259.258 305.727 259.192 305.487 259.097C304.047 258.625 301.654 257.579 299.467 256.646C298.152 256.132 296.867 255.544 295.618 254.885C294.106 254.02 293.702 253.543 293.401 251.709C290.402 237.867 286.283 226.092 281.833 217.001C281.409 216.188 281.051 215.778 280.678 215.695C280.005 215.602 279.73 216.359 279.725 217.25C279.404 230.237 282.134 246.99 282.098 248.119C282.098 249.067 281.709 249.321 281.124 249.264C280.975 249.249 280.827 249.222 280.683 249.181C279.28 248.84 277.026 248.145 274.85 247.42C272.674 246.695 270.706 245.975 269.204 245.348C268.718 245.213 268.284 244.937 267.954 244.555C267.625 244.174 267.417 243.703 267.354 243.203C266.279 234.64 265.722 226.02 265.686 217.389C265.562 204.304 266.448 192.524 267.67 188.923C267.803 188.48 268.078 188.093 268.452 187.822C268.827 187.55 269.28 187.409 269.742 187.421C270.929 187.592 272.193 187.732 273.488 187.918Z" fill="#FE5000"/>
<path d="M242.204 139.378C241.758 128.416 237.759 119.558 224.015 117.693C222.218 117.465 220.408 117.357 218.597 117.372C200.429 117.263 196.321 126.329 197.31 137.897C198.864 155.701 207.153 172.253 222.031 173.387C236.769 174.537 242.955 158.24 242.204 139.378ZM221.073 159.198H220.959C216.519 158.794 213.23 150.625 212.453 139.668C211.935 132.265 214.431 129.452 219.306 129.541C219.664 129.541 220.006 129.572 220.342 129.608C224.575 130.126 227.009 133.234 227.388 140.093C228.025 151.63 225.341 159.462 221.073 159.198Z" fill="#FE5000"/>
<path d="M263.189 208.158C263.06 195.59 258.48 184.53 241.587 182.702H241.385C224.419 181.018 220.016 190.125 220.7 201.631C221.736 219.508 229.506 236.567 243.338 239.691C244.316 239.934 245.315 240.085 246.322 240.142C258.169 240.67 263.371 226.227 263.189 208.158ZM243.317 225.3C243.18 225.289 243.043 225.27 242.908 225.243C238.686 224.414 235.744 215.789 235.267 204.594C234.961 197.341 237.241 194.642 241.561 195.031C241.696 195.031 241.831 195.031 241.97 195.072C246.55 195.689 249.119 199.123 249.321 206.697C249.622 218.084 247.099 225.507 243.317 225.284V225.3Z" fill="#FE5000"/>
<path d="M194.218 118.056C195.186 118.144 195.715 118.512 195.694 119.335C195.85 121.221 192.964 130.359 194.197 144.517C195.399 158.328 199.377 168.238 199.46 169.621C199.522 170.45 199.087 170.704 198.17 170.735C195.731 170.849 193.288 170.838 190.85 170.704L189.224 170.647C187.276 170.597 185.333 170.444 183.401 170.191C182.308 170.03 181.811 169.673 181.329 168.492C180.376 165.783 178.739 156.877 177.801 147.698C176.216 132.017 177.045 122.236 177.64 119.366C177.837 118.128 178.609 117.74 179.656 117.636C181.904 117.579 184.318 117.584 186.768 117.636C189.343 117.74 191.949 117.864 194.218 118.056Z" fill="#FE5000"/>
<path d="M210.836 180.806L211.52 180.847C213.965 181.018 216.416 181.267 218.555 181.567C219.477 181.717 219.954 182.085 219.928 182.93C220.026 184.826 217.105 193.808 217.939 207.992C218.757 221.824 222.254 232.024 222.316 233.428C222.352 234.2 221.99 234.464 221.239 234.423H220.907C218.716 234.376 216.447 234.096 214.172 233.837C211.774 233.563 209.381 233.319 207.179 232.874C206.143 232.64 205.687 232.262 205.242 231.081C204.407 228.361 203.055 219.508 202.392 210.391C201.247 194.85 202.247 185.167 202.874 182.323C203.092 181.096 203.827 180.728 204.806 180.65C206.744 180.624 208.79 180.702 210.836 180.806Z" fill="#FE5000"/>
<path d="M147.346 115.947C148.547 115.984 149.936 116.051 151.417 116.139C154.609 116.32 157.965 116.657 159.861 116.875C161.094 116.999 161.472 117.439 161.545 118.071C161.711 119.724 157.867 140.839 159.385 153.515C159.825 157.292 160.846 158.064 163.529 158.116C166.819 158.167 169.611 156.867 172.056 155.525C172.593 155.155 173.219 154.934 173.869 154.883C174.115 154.872 174.358 154.936 174.566 155.065C174.775 155.194 174.94 155.384 175.04 155.608C176.376 157.924 178.438 165.451 178.697 168.15C178.811 169.31 178.045 170.118 176.423 170.16C172.652 170.274 168.917 170.284 164.508 170.258C158.628 170.207 152.961 170.103 148.998 169.999C147.283 169.948 146.325 169.683 146.03 167.974C145.47 164.917 144.952 161.504 144.476 157.95C142.714 144.999 141.611 129.774 142.652 117.481C142.658 117.262 142.709 117.047 142.802 116.848C142.894 116.65 143.026 116.472 143.19 116.327C143.353 116.181 143.545 116.071 143.752 116.002C143.96 115.933 144.18 115.907 144.398 115.927C145.123 115.901 146.139 115.911 147.346 115.947Z" fill="#FE5000"/>
<path d="M177.615 179.422H178.298C181.287 179.469 184.447 179.687 186.214 179.889C187.369 179.982 187.716 180.407 187.768 181.018C187.887 182.671 183.81 203.506 184.955 215.892C185.287 219.581 186.23 220.332 188.732 220.384H189.099C192.099 220.384 194.528 219.182 196.766 217.99C197.256 217.667 197.815 217.465 198.398 217.4C198.648 217.386 198.895 217.45 199.106 217.584C199.317 217.718 199.481 217.914 199.574 218.146C200.781 220.456 202.558 227.988 202.739 230.651C202.817 231.786 202.113 232.532 200.667 232.542C197.005 232.516 193.534 232.392 189.384 232.314C183.857 232.211 178.547 232.169 174.828 232.179C173.222 232.179 172.331 231.946 172.092 230.289C171.642 227.336 171.232 224.041 170.875 220.596C169.518 208.054 168.803 193.28 170.067 181.189C170.079 180.753 170.258 180.339 170.568 180.032C170.878 179.725 171.294 179.549 171.73 179.542C172.978 179.433 175.144 179.386 177.615 179.422Z" fill="#FE5000"/>
<path d="M107.022 112.906C108.607 112.906 111.249 113.093 114.238 113.373C117.486 113.658 120.905 114.103 122.822 114.409C124.075 114.585 124.469 115.046 124.567 115.709C124.79 117.393 121.744 139.575 123.801 153.091C124.397 157.09 125.464 157.893 128.126 157.877H128.406C131.623 157.784 134.239 156.37 136.581 154.997C137.477 154.443 137.928 154.292 138.311 154.287C138.569 154.266 138.827 154.324 139.051 154.454C139.276 154.583 139.455 154.778 139.565 155.013C140.994 157.39 143.336 165.166 143.709 167.963C143.864 169.176 143.129 170.036 141.518 170.144C138.409 170.378 135.612 170.538 131.97 170.662L129.613 170.745C123.744 170.932 118.082 171.03 114.124 171.077C112.414 171.077 111.44 170.828 111.067 169.005C110.373 165.72 109.7 162.027 109.073 158.183C106.726 144.196 104.929 127.733 105.447 114.585C105.509 113.533 106.027 112.927 107.022 112.906Z" fill="#FE5000"/>
<path d="M144.155 179.702C147.009 179.619 149.962 179.676 151.661 179.77C152.816 179.816 153.163 180.236 153.241 180.868C153.412 182.5 150.133 204.366 151.718 217.244C152.158 220.871 153.054 221.663 155.261 221.539L155.634 221.513C158.691 221.218 161.229 219.581 163.508 218.063C164.405 217.446 164.829 217.286 165.197 217.275C165.425 217.248 165.656 217.295 165.855 217.41C166.054 217.525 166.21 217.701 166.301 217.913C167.58 220.151 169.601 227.621 169.875 230.309C169.994 231.48 169.285 232.345 167.772 232.511C164.249 232.936 160.809 233.376 156.712 233.837C151.262 234.454 145.999 235.096 142.347 235.614C142.191 235.614 142.041 235.655 141.901 235.666C140.601 235.78 139.829 235.521 139.58 233.961C139.016 230.853 138.477 227.393 137.985 223.761C136.13 210.541 134.83 194.85 135.597 182.023C135.679 180.987 136.208 180.313 137.182 180.194C138.544 179.992 140.974 179.811 143.74 179.713L144.155 179.702Z" fill="#FE5000"/>
<path d="M82.565 110.202C84.9997 110.321 87.5122 110.544 90.0351 110.845C92.7185 111.155 95.4175 111.534 97.8056 111.938C98.8417 112.135 99.3598 112.575 99.4634 113.492C99.8053 115.564 97.7901 125.598 100.556 141.725C103.25 157.442 108.249 168.342 108.488 169.87C108.638 170.797 108.229 171.124 107.317 171.258C105.649 171.55 103.966 171.751 102.276 171.859L100.049 172.009C97.5736 172.225 95.0874 172.287 92.6046 172.196C91.5011 172.108 90.9675 171.74 90.3355 170.362C89.0663 167.254 86.3622 156.655 84.3263 145.657C80.8451 126.893 80.5291 115.341 80.8295 112.041C80.8503 110.653 81.5548 110.249 82.565 110.202Z" fill="#FE5000"/>
<path d="M122.309 180.806C124.505 180.676 126.686 180.619 128.629 180.64C129.561 180.64 130.069 181.002 130.121 181.883C130.39 183.831 128.334 193.896 130.515 209.075C132.644 223.875 136.995 233.718 137.182 235.153C137.301 236.039 136.907 236.412 136.068 236.655C133.908 237.396 131.644 237.899 129.39 238.432C127.154 239.01 124.888 239.471 122.604 239.815C121.594 239.919 121.117 239.66 120.568 238.458C119.496 235.655 117.258 225.922 115.647 215.664C112.891 198.155 112.844 187.001 113.176 183.722C113.264 182.313 113.953 181.795 114.916 181.562C117.025 181.241 119.289 180.997 121.584 180.837L122.309 180.806Z" fill="#FE5000"/>
<path d="M83.3317 154.344C81.9951 147.128 79.1874 142.512 71.8364 137.435C71.3824 137.187 71.0412 136.773 70.8832 136.28C70.7796 135.762 71.1008 135.353 71.6136 134.726C74.8048 131.665 76.8873 127.702 75.7579 121.775C75.1737 118.419 73.5136 115.345 71.0283 113.015C66.0965 108.353 58.6938 106.519 47.5249 104.701C41.4172 103.706 35.2474 102.888 32.2842 102.654C32.0723 102.634 31.8589 102.634 31.647 102.654C30.7456 102.742 30.2328 103.317 30.3882 104.576C31.792 117.791 33.9995 130.908 36.9983 143.854C39.2622 153.811 41.9353 164.275 45.1419 174.838C45.7273 176.775 46.7582 176.853 47.8461 176.827C51.3998 176.687 55.3628 176.309 59.103 175.915L60.3619 175.76C79.6536 173.211 85.5437 166.352 83.3317 154.344ZM48.7526 129.805C47.4265 123.666 46.7634 118.325 47.6648 117.175C47.8975 116.937 48.1765 116.748 48.4848 116.622C48.7931 116.495 49.124 116.433 49.4572 116.439C50.3217 116.386 51.1894 116.418 52.0473 116.538C56.0155 117.056 59.9474 118.61 60.7763 122.666C61.8124 127.893 57.2329 132.462 52.3634 132.954C51.9332 132.999 51.4999 133.008 51.0683 132.98C49.7266 132.903 49.1567 131.675 48.7526 129.805ZM61.4446 160.048C61.1648 160.079 60.8851 160.094 60.6053 160.11C58.4192 160.208 57.6577 159.97 56.6942 159.172C55.4871 157.924 54.5806 155.152 53.617 150.609C53.0057 147.744 53.099 145.885 54.881 144.553C56.6631 143.222 58.7404 142.388 60.1287 142.253C60.2893 142.253 60.4396 142.253 60.5743 142.253C63.3406 142.357 66.9876 146.558 67.9615 151.448C69.096 157.142 65.4438 159.587 61.4446 160.048Z" fill="#FE5000"/>
<path d="M104.887 218.286C104.708 218.225 104.55 218.113 104.433 217.964C104.316 217.815 104.246 217.635 104.229 217.446C104.198 217.231 104.21 217.012 104.264 216.801C104.318 216.59 104.414 216.392 104.545 216.219C108.69 210.645 111.28 205.076 110.088 197.771C108.198 185.97 98.2201 182.748 85.352 184.116C85.1034 184.116 84.834 184.168 84.6061 184.204C81.4357 184.567 72.111 186.214 69.5415 187.188C68.5054 187.519 68.0288 188.063 68.0496 189.353C68.8858 202.209 70.5854 214.993 73.1367 227.621C75.1726 237.857 77.4571 246.876 79.4775 253.963C79.8453 255.279 80.4566 255.517 81.1404 255.367C81.3678 255.323 81.59 255.255 81.8035 255.165C83.4612 254.44 85.207 253.719 86.9838 252.88C89.1182 251.891 91.1282 250.943 92.5683 250.223C92.947 250.068 93.2588 249.785 93.4484 249.423C93.6381 249.061 93.6934 248.643 93.6044 248.244C93.4127 247.161 90.7085 239.883 89.8641 235.293C89.1285 231.294 89.9367 228.848 92.4543 228.077C92.6242 228.025 92.7972 227.986 92.9724 227.957C96.7489 227.439 100.701 233.076 103.742 244.11C104.012 245.001 104.473 245.353 105.436 245.213C105.676 245.174 105.913 245.119 106.146 245.048C107.462 244.675 109.472 244.063 111.404 243.436C113.761 242.685 115.217 241.919 116.533 241.447C117.017 241.31 117.431 240.992 117.689 240.56C117.947 240.128 118.03 239.613 117.921 239.121C117.538 236.288 113.222 222.565 104.887 218.286ZM87.7298 218.705C87.6573 218.728 87.5827 218.744 87.5071 218.752C86.471 218.902 85.8545 217.835 85.0619 213.572C83.6425 205.956 83.2851 199.274 84.3988 197.419C84.9169 196.533 86.2482 195.943 87.735 195.704C87.8801 195.704 88.0199 195.658 88.165 195.642C91.3768 195.269 94.0447 196.823 94.8166 201.201C96.1169 208.759 91.7446 217.509 87.7298 218.705Z" fill="#FE5000"/>
<path d="M46.7634 190.26C53.8243 189.136 59.4553 189.457 62.5687 190.69C64.2109 191.539 64.6409 192.508 64.9672 194.523C65.7607 198.916 66.2592 203.357 66.4592 207.816C66.3659 208.899 66.1587 209.339 65.6562 209.474C64.8222 209.614 63.7809 209.22 62.491 208.873C61.0244 208.425 59.4788 208.296 57.9582 208.495C57.7251 208.536 57.4868 208.583 57.2485 208.645C56.1036 208.951 55.741 209.759 55.8705 211.753C56.3015 215.916 56.9552 220.052 57.8287 224.145C61.7917 242.706 67.7854 257.403 68.3397 260.174C68.609 261.495 68.3397 262.376 67.459 263.215C65.6071 264.69 63.664 266.046 61.6414 267.277C59.7077 268.55 57.6797 269.674 55.5752 270.639C55.4215 270.728 55.2558 270.794 55.0831 270.835C54.3164 271.017 53.6119 270.53 53.0627 268.566C51.8868 264.894 50.5969 259.718 49.3587 254.17C44.4736 232.325 43.365 219.586 42.3652 215.126C42.0648 213.789 41.6193 212.981 40.5366 213.188C40.4486 213.204 40.362 213.226 40.2776 213.256C35.9727 214.561 33.5431 218.731 32.0459 219.291C31.4139 219.431 30.927 218.995 30.6161 217.69C29.865 214.54 28.228 203.874 27.8602 199.761C27.805 199.169 27.8961 198.572 28.1256 198.024C28.355 197.476 28.7158 196.992 29.176 196.616C31.2223 194.901 37.0087 192.026 45.2352 190.529C45.7429 190.431 46.2557 190.343 46.7634 190.26Z" fill="#FE5000"/>
<path d="M87.8438 21.9441C91.3575 21.6871 94.8861 21.7096 98.3962 22.0114C98.6123 22.0335 98.8289 21.9741 99.0033 21.8446C99.1778 21.7152 99.2975 21.5253 99.3391 21.3121C99.3619 21.2001 99.3622 21.0848 99.34 20.9727C99.3177 20.8606 99.2734 20.7541 99.2096 20.6594C99.1482 20.5631 99.0678 20.4804 98.9734 20.4163C98.879 20.3521 98.7725 20.3079 98.6604 20.2864C96.8717 19.9344 95.0614 19.7025 93.2418 19.5922C91.5529 19.4782 89.7709 19.4212 87.7972 19.4316C84.1633 19.4418 80.5323 19.6372 76.9184 20.017C68.4018 20.9546 61.6259 22.5243 55.5959 24.9539C52.9695 26.0573 49.1049 27.8808 45.9397 30.9683C44.4685 32.4014 43.3204 34.1323 42.5725 36.0451C41.8359 38.0117 41.6217 40.1357 41.9508 42.2097C42.2744 44.1726 42.9333 46.0651 43.8986 47.8045C44.8126 49.4634 45.8921 51.0255 47.1208 52.4669C49.5159 55.2566 52.2241 57.7614 55.1919 59.9318C55.2411 59.9697 55.2951 60.001 55.3524 60.0251C55.5379 60.112 55.7481 60.1307 55.946 60.0779C56.1439 60.0252 56.3168 59.9043 56.4344 59.7366C56.5519 59.5689 56.6066 59.3651 56.5887 59.1611C56.5709 58.9571 56.4817 58.7659 56.3367 58.6212C53.8481 56.1421 51.5419 53.4863 49.4365 50.6745C48.4447 49.3061 47.5779 47.8515 46.8463 46.3281C46.1319 44.8898 45.656 43.3449 45.4372 41.7539C45.2475 40.2658 45.4254 38.7539 45.9552 37.3505C46.5531 35.9306 47.4244 34.6422 48.5195 33.5585C50.5347 31.5589 53.3062 29.8286 56.9843 28.2642C60.2008 26.9176 63.5222 25.8365 66.9151 25.0316C70.1632 24.2286 73.5615 23.5707 77.2758 23.032C80.6327 22.5347 84.088 22.1824 87.8438 21.9441Z" fill="#111111"/>
<path d="M255.957 85.6576C255.466 84.4567 254.835 83.3178 254.077 82.2644C253.844 81.9122 253.59 81.5806 253.331 81.2284C253.202 81.0678 253.077 80.902 252.927 80.7103C252.777 80.5186 252.652 80.3943 252.518 80.2337C252.253 79.9229 252 79.6069 251.72 79.322C250.059 77.5401 248.27 75.8815 246.369 74.3592C242.635 71.3573 238.684 68.6371 234.547 66.2208C230.195 63.6306 226.077 61.4341 221.959 59.4863C219.539 58.3673 217.4 57.4401 215.395 56.6526C214.084 56.1346 213.007 55.7564 212.002 55.4352L211.904 55.4042C210.753 55.0079 209.56 54.7437 208.35 54.6167C208.141 54.6157 207.939 54.6936 207.785 54.8347C207.632 54.9758 207.537 55.1699 207.52 55.378C207.503 55.5862 207.565 55.7931 207.694 55.9574C207.823 56.1217 208.009 56.2312 208.215 56.2641C209.305 56.4596 210.37 56.774 211.391 57.2018C212.51 57.6317 213.598 58.0876 214.608 58.5383C216.535 59.4034 218.597 60.4084 220.907 61.6154C225.388 63.9518 229.367 66.2363 233.076 68.5986C235.075 69.873 237.028 71.1888 238.873 72.5098C240.945 73.9655 242.727 75.3486 244.384 76.7421C246.146 78.2021 247.807 79.7788 249.358 81.4615C249.601 81.7205 249.829 81.9795 250.052 82.2644L250.435 82.7099C250.554 82.8757 250.684 83.0363 250.808 83.1969C251.021 83.4715 251.238 83.746 251.435 84.0568C252.048 84.9168 252.559 85.8451 252.958 86.8232C253.34 87.6842 253.518 88.6223 253.476 89.5636C253.405 90.4392 253.079 91.2748 252.538 91.9673C252.319 92.2667 252.069 92.5427 251.792 92.791L250.964 93.4696C250.774 93.6234 250.571 93.7603 250.357 93.8788L249.7 94.2881L248.943 94.6611C248.513 94.8826 248.07 95.0797 247.617 95.2516L247.462 95.3138C245.34 96.1096 243.157 96.7298 240.934 97.1684C238.826 97.588 236.583 97.9299 234.076 98.2045C230.061 98.6759 225.616 98.9763 220.089 99.1577L218.887 99.1939C216.975 99.2509 214.991 99.3079 213.038 99.3131C211.753 99.3131 210.448 99.3131 209.179 99.3131C208.112 99.3131 207.044 99.3131 205.962 99.3131C205.772 99.3142 205.59 99.3804 205.443 99.5005C205.297 99.6206 205.197 99.7873 205.159 99.9726C205.122 100.158 205.149 100.351 205.237 100.518C205.324 100.686 205.467 100.818 205.64 100.893C205.728 100.929 205.821 100.952 205.915 100.96C214.297 101.551 224.233 102.033 234.407 101.131C238.743 100.701 243.778 100.095 248.648 98.2459L248.777 98.1993C249.328 97.9917 249.867 97.7565 250.394 97.4948L251.264 97.0596L252.077 96.5726C252.375 96.4052 252.659 96.2147 252.927 96.0028L253.145 95.837C253.336 95.692 253.523 95.5521 253.74 95.376L253.916 95.2102C254.375 94.8011 254.794 94.3483 255.165 93.8581C256.086 92.6635 256.628 91.2197 256.719 89.7138C256.777 88.3214 256.516 86.9342 255.957 85.6576Z" fill="#111111"/>
<path d="M178.096 42.3859L182.51 43.4893L186.913 44.6704L187.286 44.774C190.042 45.5407 192.892 46.3281 195.648 47.2399C195.854 47.3073 196.078 47.2908 196.272 47.1938C196.466 47.0968 196.614 46.9272 196.684 46.7218C196.72 46.6182 196.736 46.5082 196.73 46.3984C196.723 46.2886 196.695 46.1812 196.647 46.0823C196.599 45.9835 196.531 45.8953 196.449 45.8227C196.366 45.7502 196.27 45.6948 196.166 45.6599C191.042 43.7794 185.473 42.0336 178.64 40.1583L176.604 39.6403C174.361 39.0497 172.046 38.4384 169.746 37.91L168.191 37.537C167.223 37.3039 166.259 37.0708 165.285 36.8584L160.794 35.9156C148.778 33.4327 136.601 31.8037 124.355 31.0408L117.46 30.7404C116.942 30.7404 116.46 30.7404 115.958 30.7404H108.265C107.747 30.7404 107.265 30.7715 106.763 30.7974L99.0438 31.1652C98.4895 31.2014 97.9403 31.2481 97.3912 31.2947L96.7333 31.3517C93.4023 31.6469 90.3873 32.0355 87.5071 32.5431C84.3732 33.0522 81.2968 33.8677 78.3223 34.9779C76.7462 35.5744 75.2512 36.3663 73.8723 37.335C73.121 37.8747 72.4435 38.5104 71.8571 39.2258C71.2141 40.0107 70.7302 40.9134 70.4325 41.8834C70.1406 42.8766 70.0716 43.922 70.2305 44.945C70.3785 45.8861 70.6721 46.7984 71.1008 47.6491C71.8841 49.177 72.9211 50.5609 74.1676 51.7416C74.7219 52.2856 75.3176 52.814 75.9807 53.3631C76.5506 53.8138 77.167 54.2645 77.9234 54.7825C79.1309 55.5988 80.4045 56.3127 81.731 56.9168L82.0987 57.0774C82.2591 57.1429 82.4359 57.1571 82.6047 57.1182C82.7735 57.0792 82.9261 56.989 83.0416 56.8599C83.1864 56.6929 83.259 56.4752 83.2435 56.2547C83.228 56.0342 83.1255 55.8289 82.9587 55.6839C80.708 53.774 78.6056 51.6959 76.6697 49.4675C75.7937 48.4401 75.0553 47.3029 74.4732 46.0847C73.9732 45.1296 73.8299 44.0276 74.0692 42.9764C74.4504 41.9213 75.1674 41.0204 76.1102 40.4121C77.2214 39.6256 78.4299 38.9866 79.7054 38.5109C82.4355 37.4579 85.2618 36.6736 88.1442 36.1694C90.9209 35.6514 93.8427 35.2887 97.0442 34.9883L99.2872 34.7966L106.882 34.3666C107.363 34.3356 107.85 34.3045 108.327 34.2941L115.134 34.232H115.942C116.424 34.232 116.906 34.232 117.387 34.232L124.195 34.4599C136.304 34.987 148.362 36.3719 160.276 38.6042C166.021 39.6765 172.015 40.9354 178.096 42.3859Z" fill="#111111"/>
<path d="M213.054 91.5011C215.512 91.0733 217.881 90.2307 220.057 89.0093C221.274 88.3062 222.288 87.2995 223 86.0875C223.712 84.7819 223.947 83.2686 223.663 81.8086C223.399 80.5215 222.904 79.2929 222.202 78.1823C221.563 77.1328 220.832 76.1428 220.016 75.2243C218.432 73.4444 216.699 71.8032 214.836 70.3185C214.674 70.187 214.47 70.12 214.263 70.1306C214.055 70.1411 213.858 70.2284 213.711 70.3755C213.633 70.4539 213.57 70.5472 213.528 70.6498C213.485 70.7525 213.463 70.8626 213.463 70.9738C213.463 71.085 213.485 71.1951 213.528 71.2978C213.57 71.4004 213.633 71.4937 213.711 71.5721C215.332 73.1603 216.841 74.8584 218.229 76.6541C218.894 77.5265 219.49 78.4497 220.011 79.4152C220.5 80.2949 220.837 81.2513 221.005 82.2437C221.145 83.0887 220.984 83.9558 220.55 84.694C220.041 85.4627 219.35 86.0943 218.54 86.5331C217.622 87.0462 216.651 87.4563 215.644 87.7556C214.597 88.0855 213.531 88.3536 212.453 88.5586C207.973 89.3245 203.435 89.6972 198.89 89.6724C194.746 89.7086 190.239 89.5636 185.105 89.2372C176.408 88.6467 167.388 87.7349 157.53 86.4605C153.386 85.9166 148.91 85.2898 143.787 84.5386C139.425 83.8911 134.809 83.1606 130.074 82.368C129.86 82.3312 129.641 82.3785 129.461 82.5003C129.281 82.622 129.156 82.8085 129.111 83.0208C129.085 83.1291 129.082 83.2415 129.102 83.3511C129.122 83.4607 129.163 83.5651 129.225 83.658C129.312 83.797 129.441 83.9055 129.592 83.9688C129.645 83.9939 129.701 84.013 129.758 84.0258C134.607 85.0618 139.394 85.9529 143.44 86.6833C147.921 87.4966 152.547 88.2374 157.188 88.9419C168.28 90.5893 176.832 91.5736 184.914 92.1331C190.094 92.4957 194.699 92.6511 198.901 92.6511C201.491 92.6511 203.791 92.5682 205.946 92.418C208.333 92.2724 210.708 91.9661 213.054 91.5011Z" fill="#111111"/>
<path d="M130.867 2.04625L134.317 6.96243L140.259 7.81202L136.653 12.609L137.684 18.525L132.001 16.5772L126.697 19.3902L126.795 13.3809L122.48 9.20554L128.225 7.44421L130.867 2.04625Z" fill="#FE5000"/>
<path d="M130.862 2.05143L134.312 6.96762L140.259 7.81202L136.633 12.6142L137.669 18.5302L131.97 16.5772L126.66 19.3902L126.759 13.3861L122.48 9.23144L128.22 7.47011L130.862 2.07734V2.05143ZM130.862 0.00518544H130.701C130.346 0.034977 130.004 0.156011 129.709 0.356578C129.414 0.557145 129.176 0.830448 129.017 1.15004L126.769 5.74505L121.879 7.24735C121.542 7.35656 121.238 7.55046 120.997 7.8105C120.756 8.07054 120.586 8.38803 120.503 8.73261C120.42 9.0772 120.426 9.43736 120.522 9.77865C120.618 10.1199 120.8 10.431 121.05 10.6819L124.723 14.246L124.64 19.3591C124.635 19.7161 124.723 20.0682 124.895 20.3814C125.066 20.6945 125.316 20.958 125.619 21.1463C125.924 21.3311 126.272 21.4339 126.629 21.4448C126.986 21.4557 127.339 21.3743 127.655 21.2085L132.177 18.8151L137.016 20.478C137.23 20.5501 137.454 20.5869 137.679 20.5868C137.978 20.5841 138.273 20.5167 138.543 20.3892C138.814 20.2617 139.053 20.0772 139.246 19.8484C139.438 19.6195 139.579 19.3517 139.658 19.0634C139.737 18.775 139.753 18.473 139.705 18.178L138.824 13.1426L141.901 9.05012C142.11 8.76326 142.243 8.4274 142.285 8.07476C142.327 7.72211 142.278 7.36453 142.142 7.03633C142.006 6.70814 141.789 6.42034 141.51 6.20057C141.231 5.98079 140.9 5.83642 140.549 5.78131L135.483 5.06123L132.545 0.875485C132.355 0.606011 132.102 0.385975 131.81 0.233693C131.517 0.08141 131.192 0.001286 130.862 0V0.00518544Z" fill="#111111"/>
<path d="M251.14 48.364L250.762 54.3577L254.875 58.73L249.057 60.2271L246.172 65.4904L242.95 60.4188L237.054 59.2998L240.877 54.6686L240.121 48.7111L245.705 50.9231L251.14 48.364Z" fill="#FE5000"/>
<path d="M251.135 48.364L250.762 54.3577L254.875 58.73L249.057 60.2271L246.167 65.4904L242.95 60.4188L237.049 59.2998L240.877 54.6737L240.121 48.7163L245.705 50.9231L251.135 48.364ZM251.135 46.2919C250.832 46.2928 250.533 46.36 250.259 46.4887L245.633 48.6697L240.877 46.7892C240.545 46.6593 240.185 46.6173 239.832 46.6672C239.479 46.7171 239.145 46.8573 238.862 47.0741C238.581 47.2947 238.362 47.5843 238.226 47.9147C238.089 48.2451 238.041 48.6051 238.085 48.9598L238.727 54.0314L235.469 57.9736C235.247 58.2503 235.1 58.5793 235.042 58.9292C234.983 59.279 235.016 59.638 235.136 59.9718C235.256 60.3055 235.459 60.6029 235.727 60.8353C235.995 61.0678 236.318 61.2276 236.666 61.2994L241.691 62.2578L244.436 66.5731C244.62 66.8654 244.876 67.1062 245.178 67.2729C245.481 67.4396 245.821 67.5268 246.167 67.5262H246.234C246.591 67.5165 246.939 67.4133 247.243 67.2269C247.548 67.0406 247.798 66.7776 247.969 66.4643L250.43 61.9781L255.388 60.7037C255.729 60.6099 256.041 60.43 256.294 60.1812C256.546 59.9324 256.731 59.6231 256.83 59.2826C256.928 58.9422 256.938 58.5822 256.858 58.2369C256.778 57.8916 256.61 57.5727 256.372 57.3105L252.865 53.5807L253.186 48.478C253.207 48.1218 253.135 47.7663 252.978 47.446C252.821 47.1256 252.584 46.8512 252.29 46.6493C251.95 46.4153 251.547 46.2906 251.135 46.2919Z" fill="#111111"/>
<path d="M108.752 60.7348L109.482 66.6922L114.331 70.2408L108.886 72.774L107.011 78.4776L102.919 74.0846L96.9146 74.0639L99.826 68.8162L97.9921 63.097L103.882 64.2471L108.752 60.7348Z" fill="#FE5000"/>
<path d="M108.752 60.7348L109.482 66.6922L114.326 70.2408L108.886 72.774L107.011 78.4724L102.914 74.0743H96.9095L99.826 68.8058L97.987 63.1074L103.882 64.2574L108.752 60.7451L108.752 60.7348ZM108.752 58.673C108.321 58.6743 107.9 58.8101 107.55 59.0615L103.406 62.0558L98.3859 61.0767C98.0356 61.0106 97.6743 61.0359 97.3367 61.1502C96.9991 61.2646 96.6967 61.4641 96.4588 61.7294C96.2238 61.997 96.0617 62.3206 95.9882 62.669C95.9147 63.0175 95.9323 63.379 96.0392 63.7187L97.5933 68.5934L95.1067 73.0641C94.9387 73.3773 94.8541 73.7284 94.861 74.0837C94.8679 74.439 94.9661 74.7866 95.1461 75.093C95.3261 75.3994 95.5819 75.6544 95.8889 75.8334C96.1959 76.0125 96.5438 76.1095 96.8991 76.1153H102.012L105.499 79.8607C105.692 80.0665 105.926 80.2306 106.185 80.3429C106.444 80.4551 106.724 80.5132 107.006 80.5135C107.154 80.513 107.302 80.4974 107.446 80.4669C107.794 80.3879 108.116 80.2205 108.38 79.9809C108.644 79.7413 108.841 79.4376 108.954 79.0992L110.555 74.24L115.217 72.0798C115.536 71.9252 115.81 71.6913 116.013 71.4003C116.216 71.1094 116.341 70.7713 116.376 70.4183C116.411 70.0653 116.354 69.7093 116.212 69.3843C116.07 69.0594 115.847 68.7763 115.564 68.5623L111.42 65.5422L110.798 60.4654C110.734 59.9681 110.492 59.5109 110.117 59.1784C109.741 58.846 109.258 58.6609 108.757 58.6574L108.752 58.673Z" fill="#111111"/>
<path d="M188.996 63.04L192.596 67.8474L198.564 68.5105L195.104 73.4215L196.316 79.3013L190.581 77.5244L185.359 80.4979L185.276 74.4939L180.837 70.448L186.52 68.5105L188.996 63.04Z" fill="#FE5000"/>
<path d="M188.996 63.04L192.591 67.8474L198.564 68.5105L195.104 73.4215L196.316 79.3013L190.576 77.5296L185.359 80.4979L185.271 74.4939L180.832 70.448L186.53 68.5105L189.006 63.04H188.996ZM189.006 60.9679C188.932 60.9626 188.858 60.9626 188.783 60.9679C188.429 61.0074 188.09 61.1378 187.801 61.3465C187.511 61.5553 187.28 61.8353 187.131 62.1594L185.023 66.8217L180.184 68.4743C179.85 68.5934 179.552 68.7963 179.318 69.0637C179.085 69.331 178.924 69.6539 178.851 70.0012C178.779 70.3485 178.796 70.7087 178.903 71.0473C179.009 71.3859 179.2 71.6915 179.459 71.9348L183.24 75.3797L183.313 80.4979C183.325 81.0394 183.549 81.5545 183.936 81.9331C184.323 82.3117 184.844 82.5236 185.385 82.5235C185.748 82.526 186.105 82.4331 186.421 82.2541L190.866 79.7209L195.756 81.2335C195.953 81.2935 196.157 81.3232 196.362 81.3216C196.666 81.318 196.965 81.2479 197.238 81.1161C197.511 80.9843 197.752 80.794 197.944 80.5588C198.136 80.3236 198.274 80.0492 198.348 79.7549C198.422 79.4606 198.43 79.1537 198.372 78.8557L197.336 73.8463L200.284 69.6658C200.485 69.3723 200.607 69.0321 200.638 68.6778C200.67 68.3235 200.609 67.9671 200.463 67.6429C200.317 67.3187 200.09 67.0376 199.803 66.8266C199.517 66.6157 199.181 66.482 198.828 66.4384L193.746 65.8737L190.68 61.776C190.488 61.5217 190.24 61.3151 189.955 61.1723C189.67 61.0294 189.356 60.9541 189.037 60.9524L189.006 60.9679Z" fill="#111111"/>
</svg>
